<?xml version="1.0" encoding="utf-8"?>
<!-- Generator: Adobe Illustrator 26.0.1, SVG Export Plug-In . SVG Version: 6.00 Build 0)  -->
<svg version="1.1" xmlns="http://www.w3.org/2000/svg" xmlns:xlink="http://www.w3.org/1999/xlink" x="0px" y="0px"
	 viewBox="0 0 326.3 100" style="enable-background:new 0 0 326.3 100;" xml:space="preserve">
<style type="text/css">
	.st0{fill:#FFFFFF;}
	.st1{fill:#253858;}
	.st2{fill:#2883FE;}
	.st3{opacity:0.7;fill:url(#SVGID_1_);}
</style>
<g id="Layer_2">
	<rect x="-260.8" y="-246" class="st0" width="841.7" height="595.3"/>
</g>
<g id="Layer_1">
	<g>
		<g>
			<path class="st1" d="M161,47.9h-11.6l-1.9,5.5h-8l11.3-31.2h8.8l11.3,31.2h-8L161,47.9z M155.2,30.6L151.4,42h7.7L155.2,30.6z"/>
			<path class="st1" d="M183.5,28.2c3.6,0,6.3,1.6,7.6,3.9v-3.5h7.6v24.8c0,6.6-3.8,12.3-12.4,12.3c-7.4,0-12.2-3.7-12.9-9.6h7.5
				c0.5,1.9,2.4,3.1,5,3.1c2.9,0,5.2-1.5,5.2-5.7v-3.5c-1.4,2.2-4,3.9-7.6,3.9c-6.1,0-10.9-5-10.9-12.8
				C172.5,33.1,177.4,28.2,183.5,28.2z M185.7,34.9c-2.8,0-5.4,2.1-5.4,6.1c0,4,2.6,6.2,5.4,6.2c2.9,0,5.4-2.2,5.4-6.1
				C191.1,37.1,188.6,34.9,185.7,34.9z"/>
			<path class="st1" d="M213.6,28.2c3.7,0,6.3,1.7,7.6,3.9v-3.5h7.6v24.8h-7.6v-3.5c-1.4,2.2-4,3.9-7.7,3.9c-6,0-10.9-5-10.9-12.8
				C202.7,33.1,207.5,28.2,213.6,28.2z M215.9,34.9c-2.8,0-5.4,2.1-5.4,6.1c0,4,2.6,6.2,5.4,6.2c2.9,0,5.4-2.2,5.4-6.1
				C221.3,37.1,218.7,34.9,215.9,34.9z"/>
			<path class="st1" d="M242,53.4h-7.6V28.6h7.6v4.1c1.7-2.6,4.4-4.4,7.8-4.4v8h-2.1c-3.6,0-5.7,1.2-5.7,5.5V53.4z"/>
			<path class="st1" d="M263.1,28.2c3.7,0,6.3,1.7,7.6,3.9v-3.5h7.6v24.8h-7.6v-3.5c-1.4,2.2-4,3.9-7.7,3.9c-6,0-10.9-5-10.9-12.8
				C252.2,33.1,257,28.2,263.1,28.2z M265.3,34.9c-2.8,0-5.4,2.1-5.4,6.1c0,4,2.6,6.2,5.4,6.2c2.9,0,5.4-2.2,5.4-6.1
				C270.8,37.1,268.2,34.9,265.3,34.9z"/>
			<path class="st1" d="M318,39.9c0-3.2-1.9-5-4.8-5c-2.9,0-4.8,1.8-4.8,5v13.5H301V39.9c0-3.2-1.9-5-4.8-5c-2.9,0-4.8,1.8-4.8,5
				v13.5h-7.6V28.6h7.6v3.1c1.5-2,4-3.4,7.2-3.4c3.7,0,6.8,1.6,8.4,4.6c1.6-2.6,4.8-4.6,8.4-4.6c6.1,0,10.1,3.9,10.1,10.6v14.5H318
				V39.9z"/>
		</g>
	</g>
	<g>
		<path class="st1" d="M139.9,70.5h8.7v1.9h-3.2v9.9h-2.4v-9.9h-3.2V70.5z"/>
		<path class="st1" d="M162.4,72.5h-4.5v3h4v1.9h-4v3.1h4.5v1.9h-6.9V70.5h6.9V72.5z"/>
		<path class="st1" d="M175.3,70.4c2.6,0,4.8,1.4,5.6,3.8h-2.7c-0.6-1.1-1.6-1.7-2.9-1.7c-2.1,0-3.6,1.5-3.6,3.9
			c0,2.4,1.5,3.9,3.6,3.9c1.3,0,2.3-0.6,2.9-1.7h2.7c-0.8,2.4-2.9,3.8-5.6,3.8c-3.4,0-6-2.5-6-6.1S171.9,70.4,175.3,70.4z"/>
		<path class="st1" d="M195.7,77.4h-5.1v5h-2.4V70.5h2.4v4.9h5.1v-4.9h2.4v11.9h-2.4V77.4z"/>
		<path class="st1" d="M215.9,70.5v11.9h-2.4l-5.4-8.1v8.1h-2.4V70.5h2.4l5.4,8.2v-8.2H215.9z"/>
		<path class="st1" d="M229.1,82.5c-3.3,0-6.1-2.5-6.1-6.1c0-3.6,2.7-6.1,6.1-6.1c3.4,0,6.1,2.5,6.1,6.1
			C235.1,80,232.4,82.5,229.1,82.5z M229.1,80.4c2.1,0,3.6-1.5,3.6-4s-1.5-3.9-3.6-3.9c-2.2,0-3.6,1.5-3.6,3.9
			S226.9,80.4,229.1,80.4z"/>
		<path class="st1" d="M244.8,70.5v10h3.9v1.9h-6.3V70.5H244.8z"/>
		<path class="st1" d="M261.2,82.5c-3.3,0-6.1-2.5-6.1-6.1c0-3.6,2.7-6.1,6.1-6.1c3.4,0,6.1,2.5,6.1,6.1
			C267.3,80,264.6,82.5,261.2,82.5z M261.2,80.4c2.1,0,3.6-1.5,3.6-4s-1.5-3.9-3.6-3.9c-2.2,0-3.6,1.5-3.6,3.9
			S259.1,80.4,261.2,80.4z"/>
		<path class="st1" d="M285.6,74.1h-2.7c-0.5-1-1.5-1.5-2.8-1.5c-2.1,0-3.6,1.5-3.6,3.9c0,2.4,1.5,3.9,3.7,3.9c1.8,0,3-1.1,3.4-2.7
			h-4.1v-1.8h6.4v2.1c-0.5,2.4-2.6,4.6-5.8,4.6c-3.5,0-6.1-2.5-6.1-6.1s2.6-6.1,6.1-6.1C282.7,70.4,284.8,71.7,285.6,74.1z"/>
		<path class="st1" d="M293.1,70.5h2.4v11.9h-2.4V70.5z"/>
		<path class="st1" d="M310,72.5h-4.5v3h4v1.9h-4v3.1h4.5v1.9h-6.9V70.5h6.9V72.5z"/>
		<path class="st1" d="M321.6,82.5c-2.5,0-4.4-1.3-4.4-3.5h2.5c0.1,1,0.7,1.6,1.8,1.6c1.1,0,1.8-0.6,1.8-1.4c0-2.6-6.1-1-6.1-5.3
			c0-2.1,1.7-3.4,4.2-3.4c2.4,0,4.1,1.2,4.2,3.4H323c-0.1-0.8-0.7-1.4-1.7-1.4c-0.9,0-1.6,0.4-1.6,1.4c0,2.4,6.1,1.1,6.1,5.2
			C325.8,80.8,324.3,82.5,321.6,82.5z"/>
	</g>
	<g>
		<path class="st2" d="M92.3,37.3C86.4,27.2,80.6,17.1,74.7,7.1c-0.2-0.3-0.3-0.5-0.5-0.8c-2.1-3.3-5.8-5.5-10-5.5
			c-4.5,0-8.3,2.5-10.3,6.1c0,0,0,0,0,0C48,17,42.1,27.2,36.2,37.3C28.5,51.4,0.6,99.2,0.6,99.2c4.9,0.3,10.1,0,14.9-1
			c6.3-1.3,12.4-3.6,17.9-7.1c4.8-3,7.8-7.3,12.1-10.9c1.4-1.2,3-2.4,4.6-3.5c2.3-1.6,4.8-2.9,7.3-3.9c2.1-0.8,4.6-1.2,7-1.3
			c2.4,0.1,4.9,0.5,7,1.3c4.3,1.6,8.3,4.4,11.9,7.3c4.3,3.6,7.3,7.8,12.1,10.9c1.6,1,3.2,1.9,4.9,2.7c4.1,2,8.5,3.5,13,4.4
			c4.8,1,10,1.2,14.9,1C127.9,99.2,100,51.4,92.3,37.3z"/>
		<linearGradient id="SVGID_1_" gradientUnits="userSpaceOnUse" x1="77.3414" y1="55.3552" x2="116.1935" y2="98.3875">
			<stop  offset="0" style="stop-color:#095CD8"/>
			<stop  offset="0.7672" style="stop-color:#207AF5"/>
		</linearGradient>
		<path class="st3" d="M78.2,34.6l-11.9,8.2l-2.2-0.5L63.7,50L71,72.8c0.1,0,0.2,0.1,0.3,0.1c4.3,1.6,8.3,4.4,11.9,7.3
			c4.3,3.6,7.3,7.8,12.1,10.9c1.6,1,3.2,1.9,4.9,2.7c4.1,2,8.5,3.5,13,4.4c4.8,1,10,1.2,14.9,1c-0.9-1.6-2.2-3.8-3.7-6.3
			c-3.9-6.6-10.2-17.6-16.4-28.3"/>
		<path class="st0" d="M83.1,74.6c0,10.8-8.8,19.6-19.6,19.6c-10.8,0-19.6-8.8-19.6-19.6c0-10.8,8.8-19.6,19.6-19.6
			C74.3,55,83.1,63.8,83.1,74.6z"/>
		<path class="st2" d="M46,78.6c0,0,4.7,17.2,22.6,13.8c0,0,9.1-3,11.7-10.2c-0.1,0.3-3.8,0-4.1,0c-3-0.2-6.1-0.7-8.9-1.8
			c-1.6-0.6-3.2-1.5-4.9-2c-3.9-1.2-8.1-1.2-12.2-0.6C48.8,77.9,47.4,78.2,46,78.6z"/>
		<path class="st2" d="M71.3,73.3c0,2.3-1.8,4.1-4.1,4.1c-2.3,0-4.1-1.8-4.1-4.1c0-2.3,1.8-4.1,4.1-4.1C69.5,69.2,71.3,71,71.3,73.3
			z"/>
		<path class="st0" d="M50.8,39.2h4.8v4.6v8.4v12.4h15.9V52.2v-8.4v-4.6h4.8c1.5,0,2.7-1.2,2.7-2.7c0-1.5-1.2-2.7-2.7-2.7H50.8
			c-1.5,0-2.7,1.2-2.7,2.7C48.1,38,49.3,39.2,50.8,39.2z"/>
		<path class="st2" d="M67.7,55c0,1.9-1.5,3.4-3.4,3.4c-1.9,0-3.4-1.5-3.4-3.4c0-1.9,1.5-3.4,3.4-3.4C66.1,51.5,67.7,53.1,67.7,55z"
			/>
		<path class="st2" d="M63.3,64.6c0,2.2-1.8,4-4,4c-2.2,0-4-1.8-4-4c0-2.2,1.8-4,4-4C61.5,60.6,63.3,62.4,63.3,64.6z"/>
	</g>
</g>
</svg>
