<?xml version="1.0" encoding="utf-8"?>
<!-- Generator: Adobe Illustrator 23.0.6, SVG Export Plug-In . SVG Version: 6.00 Build 0)  -->
<svg version="1.1" id="Layer_1" xmlns="http://www.w3.org/2000/svg" xmlns:xlink="http://www.w3.org/1999/xlink" x="0px" y="0px"
	 viewBox="0 0 650 354.3" style="enable-background:new 0 0 650 354.3;" xml:space="preserve">
<style type="text/css">
	.st0{fill:#E2EEFF;}
	.st1{opacity:0.35;}
	.st2{fill-rule:evenodd;clip-rule:evenodd;fill:#88C5EC;}
	.st3{fill-rule:evenodd;clip-rule:evenodd;fill:#298DCE;}
	.st4{fill-rule:evenodd;clip-rule:evenodd;fill:#53A9DF;}
	.st5{fill-rule:evenodd;clip-rule:evenodd;fill:#4C9FD8;}
	.st6{fill-rule:evenodd;clip-rule:evenodd;fill:#007DC2;}
	.st7{fill-rule:evenodd;clip-rule:evenodd;fill:#0064A6;}
	.st8{fill-rule:evenodd;clip-rule:evenodd;fill:#2B8CCD;}
	.st9{fill:#AABEF6;}
	.st10{fill:#D32E1F;}
	.st11{fill:#ECF1F7;}
	.st12{fill:#5B8AE8;}
	.st13{fill:#FFFFFF;}
	.st14{fill:#EF5886;}
	.st15{fill:#AABEF3;}
	.st16{fill:#6E92ED;}
	.st17{fill:#E5ECF6;}
	.st18{fill:#829BF4;}
	.st19{fill:#C6D2F4;}
	.st20{fill:#809EFE;}
	.st21{fill:#FDFEFF;}
	.st22{fill:#00487B;}
	.st23{fill:#6B90ED;}
	.st24{fill:#B7D2F9;}
	.st25{fill:#CFE3F9;}
	.st26{fill:#407BFF;}
	.st27{fill:#4566DD;}
	.st28{fill:#AEC2F7;}
	.st29{fill:#EA4B3E;}
	.st30{fill:#D0E0F4;}
	.st31{fill:#E5F1F9;}
	.st32{fill:#E4F2F9;}
	.st33{fill:url(#SVGID_1_);}
	.st34{fill:#98BDE2;}
	.st35{fill:url(#SVGID_2_);}
	.st36{fill:url(#SVGID_3_);}
	.st37{opacity:0.15;fill:#35396F;}
	.st38{fill:#CDCDFC;}
	.st39{fill:#FAFAFC;}
	.st40{fill:#1B0043;}
	.st41{fill:#FFA996;}
	.st42{fill:#053C5E;}
	.st43{opacity:0.97;fill:#98BDE2;}
	.st44{opacity:0.9;fill:#DCE9FF;}
	.st45{opacity:0.9;fill:#FDFEFF;}
	.st46{fill:#9FC6FF;}
	.st47{opacity:0.26;fill:url(#SVGID_4_);}
	.st48{fill:#D9F2FF;}
	.st49{fill:#BDD6FF;}
	.st50{fill:#ADBCFF;}
	.st51{fill:#EF6C56;}
	.st52{opacity:0.5;fill:#5D6CB7;}
	.st53{opacity:0.43;fill:#98BDE2;}
	.st54{fill:#EEF9FF;}
	.st55{fill:#EF7673;}
	.st56{fill:none;stroke:#EA4B3E;stroke-width:4;stroke-miterlimit:10;}
	.st57{opacity:0.39;fill:#1B0043;}
	.st58{opacity:0.12;fill:#123E5B;}
	.st59{fill:#BEDAFC;}
	.st60{fill:url(#SVGID_5_);}
	.st61{fill:url(#SVGID_6_);}
	.st62{fill:url(#SVGID_7_);}
	.st63{fill:url(#SVGID_8_);}
	.st64{fill:#F27F53;}
	.st65{fill:#F79779;}
	.st66{fill:#2E75E9;}
	.st67{opacity:0.32;fill:#07293A;}
	.st68{fill:#07293A;}
</style>
<rect x="-0.9" class="st0" width="649.6" height="357.7"/>
<g class="st1">
	<path class="st2" d="M302.8,14.6h334.8v36.7H302.8c-10.1,0-18.4-8.3-18.4-18.4v0C284.5,22.8,292.7,14.6,302.8,14.6z"/>
	<rect x="284.5" y="40.8" class="st3" width="353.2" height="225.2"/>
	<path class="st4" d="M289.8,266h172V56.5H297.7c-4.3,0-7.8,4.2-7.8,9.3V266z"/>
	<rect x="289.8" y="91.4" class="st3" width="172" height="15.8"/>
	<path class="st2" d="M282.1,84.6h179.7v15.8H282.1c-2.8,0-5.2-2.3-5.2-5.2v-5.5C277,87,279.3,84.6,282.1,84.6z"/>
	<rect x="289.8" y="163.1" class="st3" width="172" height="15.8"/>
	<path class="st2" d="M282.1,156.3h179.7v15.8H282.1c-2.8,0-5.2-2.3-5.2-5.2v-5.5C277,158.6,279.3,156.3,282.1,156.3z"/>
	<rect x="289.8" y="234.7" class="st3" width="172" height="15.8"/>
	<path class="st2" d="M282.1,228h179.7v15.8H282.1c-2.8,0-5.2-2.3-5.2-5.2v-5.5C277,230.3,279.3,228,282.1,228z"/>
	<path class="st2" d="M282.1,32.9h355.5v15.8H282.1c-2.8,0-5.2-2.3-5.2-5.2v-5.5C277,35.2,279.3,32.9,282.1,32.9z"/>
	<path class="st5" d="M637.6,28.7H298.9c-3.7,0-6.7-3.6-6.7-7.9c0-1.7,0.5-3.3,1.2-4.6c-5.3,2.9-9,9.3-9,16.7h353.2V28.7z"/>
	<g>
		<path class="st3" d="M296.3,116.3H319c1.1,0,1.9,0.9,1.9,1.9v36.1c0,1.1-0.9,1.9-1.9,1.9h-22.7c-1.1,0-1.9-0.9-1.9-1.9v-36.1
			C294.4,117.2,295.2,116.3,296.3,116.3z"/>
		<path class="st6" d="M324,116.3h11.5c0.5,0,1,0.4,1,1v38.1c0,0.5-0.4,1-1,1H324c-0.5,0-1-0.4-1-1v-38.1
			C323,116.7,323.4,116.3,324,116.3z"/>
		<path class="st7" d="M333.6,108.8H347c0.6,0,1.1,0.5,1.1,1.1v45.3c0,0.6-0.5,1.1-1.1,1.1h-13.4c-0.6,0-1.1-0.5-1.1-1.1v-45.3
			C332.5,109.3,333,108.8,333.6,108.8z"/>
		<path class="st5" d="M328.7,137.8H352c0.7,0,1.4,0.6,1.4,1.4V155c0,0.7-0.6,1.4-1.4,1.4h-23.2c-0.7,0-1.4-0.6-1.4-1.4v-15.8
			C327.4,138.4,328,137.8,328.7,137.8z"/>
		<path class="st8" d="M357.3,122.4h11.5c0.5,0,1,0.4,1,1v32c0,0.5-0.4,1-1,1h-11.5c-0.5,0-1-0.4-1-1v-32
			C356.3,122.8,356.7,122.4,357.3,122.4z"/>
		<path class="st5" d="M300.7,125.3h13.8c0.7,0,1.3,0.6,1.3,1.3v7.6c0,0.7-0.6,1.3-1.3,1.3h-13.8c-0.7,0-1.3-0.6-1.3-1.3v-7.6
			C299.4,125.9,300,125.3,300.7,125.3z"/>
		<path class="st5" d="M300.5,137.8h14.2c0.6,0,1.1,0.5,1.1,1.1v1c0,0.6-0.5,1.1-1.1,1.1h-14.2c-0.6,0-1.1-0.5-1.1-1.1v-1
			C299.4,138.3,299.9,137.8,300.5,137.8z"/>
		<path class="st5" d="M300.5,144.1h14.2c0.6,0,1.1,0.5,1.1,1.1v1c0,0.6-0.5,1.1-1.1,1.1h-14.2c-0.6,0-1.1-0.5-1.1-1.1v-1
			C299.4,144.5,299.9,144.1,300.5,144.1z"/>
		<path class="st6" d="M363,136c1.6,0,2.8,1.5,2.8,3.4c0,1.9-1.3,3.4-2.8,3.4c-1.6,0-2.8-1.5-2.8-3.4C360.2,137.5,361.5,136,363,136
			z"/>
	</g>
	<g>
		<path class="st5" d="M356.9,78.5h6.1c0.4,0,0.8,0.4,0.8,0.8v4.6c0,0.4-0.4,0.8-0.8,0.8h-6.1c-0.4,0-0.8-0.4-0.8-0.8v-4.6
			C356.1,78.9,356.5,78.5,356.9,78.5z"/>
		<path class="st6" d="M366.7,68.7h16.7c0.6,0,1.2,0.5,1.2,1.2v13.6c0,0.6-0.5,1.2-1.2,1.2h-16.7c-0.6,0-1.2-0.5-1.2-1.2V69.8
			C365.5,69.2,366,68.7,366.7,68.7z"/>
		<path class="st7" d="M374.7,73.8h11.4c0.4,0,0.8,0.4,0.8,0.8v9.3c0,0.4-0.4,0.8-0.8,0.8h-11.4c-0.4,0-0.8-0.4-0.8-0.8v-9.3
			C373.9,74.1,374.3,73.8,374.7,73.8z"/>
		<path class="st8" d="M382.6,58.9h9.9c0.5,0,0.8,0.4,0.8,0.8v24.1c0,0.5-0.4,0.8-0.8,0.8h-9.9c-0.5,0-0.8-0.4-0.8-0.8V59.7
			C381.8,59.2,382.2,58.9,382.6,58.9z"/>
	</g>
	<g>
		<path class="st7" d="M320.8,66.8h0.6v-1.2h-0.2c-0.4,0-0.7-0.4-0.7-0.9l0,0c0-0.5,0.3-0.9,0.7-0.9h0.8v-5.1c0-0.5,0.3-0.9,0.7-0.9
			l0,0c0.4,0,0.7,0.4,0.7,0.9v5.1h0.8c0.4,0,0.7,0.4,0.7,0.9l0,0c0,0.5-0.3,0.9-0.7,0.9H324v1.2h0.6c0.4,0,0.8,0.4,0.8,1v16
			c0,0.5-0.4,1-0.8,1h-3.9c-0.4,0-0.8-0.4-0.8-1v-16C320,67.2,320.3,66.8,320.8,66.8z"/>
		<path class="st7" d="M314.5,68.6h0.6v-1.1h-0.2c-0.4,0-0.6-0.3-0.6-0.8l0,0c0-0.4,0.3-0.8,0.6-0.8h0.7v-4.5c0-0.4,0.3-0.8,0.6-0.8
			h0c0.4,0,0.6,0.3,0.6,0.8V66h0.7c0.4,0,0.6,0.3,0.6,0.8l0,0c0,0.4-0.3,0.8-0.6,0.8h-0.2v1.1h0.6c0.4,0,0.7,0.4,0.7,0.9v14.3
			c0,0.5-0.3,0.9-0.7,0.9h-3.5c-0.4,0-0.7-0.4-0.7-0.9V69.5C313.8,69,314.1,68.6,314.5,68.6z"/>
		<path class="st6" d="M303.8,67.7h9.6c0.4,0,0.8,0.4,0.8,0.8v15.3c0,0.4-0.4,0.8-0.8,0.8h-9.6c-0.4,0-0.8-0.4-0.8-0.8V68.6
			C303,68.1,303.3,67.7,303.8,67.7z"/>
		<path class="st5" d="M305.6,71.5h5.8c0.3,0,0.5,0.2,0.5,0.5v3.2c0,0.3-0.2,0.5-0.5,0.5h-5.8c-0.3,0-0.5-0.2-0.5-0.5v-3.2
			C305.1,71.8,305.3,71.5,305.6,71.5z"/>
		<path class="st5" d="M305.6,76.8h6c0.3,0,0.5,0.2,0.5,0.5v0.4c0,0.3-0.2,0.5-0.5,0.5h-6c-0.3,0-0.5-0.2-0.5-0.5v-0.4
			C305.1,77,305.3,76.8,305.6,76.8z"/>
		<path class="st5" d="M305.6,79.5h6c0.3,0,0.5,0.2,0.5,0.5v0.4c0,0.3-0.2,0.5-0.5,0.5h-6c-0.3,0-0.5-0.2-0.5-0.5v-0.4
			C305.1,79.7,305.3,79.5,305.6,79.5z"/>
		<path class="st6" d="M315.6,74.3h5.9c0.3,0,0.5,0.2,0.5,0.5v9.4c0,0.3-0.2,0.5-0.5,0.5h-5.9c-0.3,0-0.5-0.2-0.5-0.5v-9.4
			C315.1,74.5,315.3,74.3,315.6,74.3z"/>
		<path class="st8" d="M328.1,59.3H348c0.9,0,1.7,0.8,1.7,1.7v22c0,0.9-0.8,1.7-1.7,1.7h-19.9c-0.9,0-1.7-0.8-1.7-1.7V61
			C326.4,60,327.2,59.3,328.1,59.3z"/>
		<path class="st5" d="M324.3,74.3h5.9c0.3,0,0.5,0.2,0.5,0.5v9.4c0,0.3-0.2,0.5-0.5,0.5h-5.9c-0.3,0-0.5-0.2-0.5-0.5v-9.4
			C323.8,74.5,324,74.3,324.3,74.3z"/>
	</g>
	<g>
		<path class="st5" d="M427,78.5h-6.1c-0.4,0-0.8,0.4-0.8,0.8v4.6c0,0.4,0.4,0.8,0.8,0.8h6.1c0.4,0,0.8-0.4,0.8-0.8v-4.6
			C427.8,78.9,427.4,78.5,427,78.5z"/>
		<path class="st7" d="M417.3,68.7h-16.7c-0.6,0-1.2,0.5-1.2,1.2v13.6c0,0.6,0.5,1.2,1.2,1.2h16.7c0.6,0,1.2-0.5,1.2-1.2V69.8
			C418.4,69.2,417.9,68.7,417.3,68.7z"/>
		<path class="st6" d="M409.2,73.8h-11.4c-0.4,0-0.8,0.4-0.8,0.8v9.3c0,0.4,0.4,0.8,0.8,0.8h11.4c0.4,0,0.8-0.4,0.8-0.8v-9.3
			C410,74.1,409.7,73.8,409.2,73.8z"/>
		<path class="st5" d="M412.3,77h-3.8c-0.2,0-0.3,0.1-0.3,0.3v7c0,0.2,0.1,0.3,0.3,0.3h3.8c0.2,0,0.3-0.1,0.3-0.3v-7
			C412.7,77.1,412.5,77,412.3,77z"/>
	</g>
	<g>
		<path class="st5" d="M437,62.4h12.6c0.6,0,1.1,0.5,1.1,1.1v20.1c0,0.6-0.5,1.1-1.1,1.1H437c-0.6,0-1.1-0.5-1.1-1.1V63.5
			C435.9,62.9,436.4,62.4,437,62.4z"/>
		<path class="st6" d="M452.3,62.4h6.4c0.3,0,0.5,0.2,0.5,0.5v21.1c0,0.3-0.2,0.5-0.5,0.5h-6.4c-0.3,0-0.5-0.2-0.5-0.5V63
			C451.8,62.7,452,62.4,452.3,62.4z"/>
		<path class="st7" d="M457.7,58.2h4.1v26.4h-4.1c-0.3,0-0.6-0.3-0.6-0.6V58.9C457.1,58.5,457.4,58.2,457.7,58.2z"/>
		<path class="st8" d="M455,74.4h6.8v10.3H455c-0.4,0-0.7-0.3-0.7-0.7v-8.8C454.2,74.7,454.6,74.4,455,74.4z"/>
		<path class="st4" d="M439.4,67.4h7.7c0.4,0,0.7,0.3,0.7,0.7v4.2c0,0.4-0.3,0.7-0.7,0.7h-7.7c-0.4,0-0.7-0.3-0.7-0.7v-4.2
			C438.7,67.7,439,67.4,439.4,67.4z"/>
		<path class="st4" d="M439.3,74.4h7.9c0.3,0,0.6,0.3,0.6,0.6v0.6c0,0.3-0.3,0.6-0.6,0.6h-7.9c-0.3,0-0.6-0.3-0.6-0.6V75
			C438.7,74.6,439,74.4,439.3,74.4z"/>
		<path class="st4" d="M439.3,77.8h7.9c0.3,0,0.6,0.3,0.6,0.6V79c0,0.3-0.3,0.6-0.6,0.6h-7.9c-0.3,0-0.6-0.3-0.6-0.6v-0.6
			C438.7,78.1,439,77.8,439.3,77.8z"/>
	</g>
	<g>
		<path class="st7" d="M429.6,128.2h1v-1.9h-0.3c-0.6,0-1.1-0.6-1.1-1.4v0c0-0.7,0.5-1.4,1.1-1.4h1.2v-8c0-0.7,0.5-1.4,1.1-1.4h0
			c0.6,0,1.1,0.6,1.1,1.4v8h1.2c0.6,0,1.1,0.6,1.1,1.4v0c0,0.7-0.5,1.4-1.1,1.4h-0.3v1.9h1c0.7,0,1.3,0.7,1.3,1.5v25.1
			c0,0.8-0.6,1.5-1.3,1.5h-6.1c-0.7,0-1.3-0.7-1.3-1.5v-25.1C428.3,128.8,428.9,128.2,429.6,128.2z"/>
		<path class="st7" d="M419.7,131.1h0.9v-1.7h-0.3c-0.6,0-1-0.5-1-1.2v0c0-0.7,0.5-1.2,1-1.2h1.1v-7.1c0-0.7,0.5-1.2,1-1.2h0
			c0.6,0,1,0.5,1,1.2v7.1h1.1c0.6,0,1,0.5,1,1.2v0c0,0.7-0.5,1.2-1,1.2h-0.3v1.7h0.9c0.6,0,1.1,0.6,1.1,1.4V155
			c0,0.7-0.5,1.4-1.1,1.4h-5.5c-0.6,0-1.1-0.6-1.1-1.4v-22.5C418.5,131.7,419,131.1,419.7,131.1z"/>
		<path class="st6" d="M402.8,129.7h15.1c0.7,0,1.3,0.6,1.3,1.3v24c0,0.7-0.6,1.3-1.3,1.3h-15.1c-0.7,0-1.3-0.6-1.3-1.3v-24
			C401.5,130.3,402.1,129.7,402.8,129.7z"/>
		<path class="st4" d="M405.7,135.7h9.2c0.5,0,0.9,0.4,0.9,0.9v5c0,0.5-0.4,0.9-0.9,0.9h-9.2c-0.5,0-0.9-0.4-0.9-0.9v-5
			C404.9,136.1,405.2,135.7,405.7,135.7z"/>
		<path class="st4" d="M405.6,144h9.5c0.4,0,0.7,0.3,0.7,0.7v0.7c0,0.4-0.3,0.7-0.7,0.7h-9.5c-0.4,0-0.7-0.3-0.7-0.7v-0.7
			C404.9,144.3,405.2,144,405.6,144z"/>
		<path class="st4" d="M405.6,148.2h9.5c0.4,0,0.7,0.3,0.7,0.7v0.7c0,0.4-0.3,0.7-0.7,0.7h-9.5c-0.4,0-0.7-0.3-0.7-0.7v-0.7
			C404.9,148.5,405.2,148.2,405.6,148.2z"/>
		<path class="st5" d="M421.4,140h9.3c0.4,0,0.8,0.4,0.8,0.8v14.8c0,0.4-0.4,0.8-0.8,0.8h-9.3c-0.4,0-0.8-0.4-0.8-0.8v-14.8
			C420.6,140.3,421,140,421.4,140z"/>
		<path class="st6" d="M441.1,116.4h20.8v40h-20.8c-1.5,0-2.7-1.2-2.7-2.7V119C438.4,117.6,439.6,116.4,441.1,116.4z"/>
		<path class="st5" d="M435.1,140h9.3c0.4,0,0.8,0.4,0.8,0.8v14.8c0,0.4-0.4,0.8-0.8,0.8h-9.3c-0.4,0-0.8-0.4-0.8-0.8v-14.8
			C434.3,140.3,434.6,140,435.1,140z"/>
	</g>
	<g>
		<path class="st8" d="M396.1,219.1h-8.8c-0.6,0-1.1,0.5-1.1,1.1v6.6c0,0.6,0.5,1.1,1.1,1.1h8.8c0.6,0,1.1-0.5,1.1-1.1v-6.6
			C397.3,219.6,396.8,219.1,396.1,219.1z"/>
		<path class="st7" d="M382,204.8h-24.2c-0.9,0-1.7,0.8-1.7,1.7v19.8c0,0.9,0.8,1.7,1.7,1.7H382c0.9,0,1.7-0.8,1.7-1.7v-19.8
			C383.7,205.6,382.9,204.8,382,204.8z"/>
		<path class="st6" d="M370.3,212.2h-16.5c-0.6,0-1.2,0.5-1.2,1.2v13.5c0,0.6,0.5,1.2,1.2,1.2h16.5c0.6,0,1.2-0.5,1.2-1.2v-13.5
			C371.5,212.7,371,212.2,370.3,212.2z"/>
		<path class="st8" d="M358.8,190.6h-14.3c-0.7,0-1.2,0.6-1.2,1.2v34.9c0,0.7,0.5,1.2,1.2,1.2h14.3c0.7,0,1.2-0.5,1.2-1.2v-34.9
			C360.1,191.2,359.5,190.6,358.8,190.6z"/>
	</g>
	<g>
		<path class="st6" d="M448.5,202.1h-0.9v-1.7h0.3c0.6,0,1.1-0.6,1.1-1.2v0c0-0.7-0.5-1.2-1.1-1.2h-1.1v-7.3c0-0.7-0.5-1.2-1.1-1.2
			h0c-0.6,0-1.1,0.6-1.1,1.2v7.3h-1.1c-0.6,0-1.1,0.6-1.1,1.2v0c0,0.7,0.5,1.2,1.1,1.2h0.3v1.7h-0.9c-0.6,0-1.2,0.6-1.2,1.4v23.1
			c0,0.8,0.5,1.4,1.2,1.4h5.6c0.6,0,1.2-0.6,1.2-1.4v-23.1C449.7,202.7,449.2,202.1,448.5,202.1z"/>
		<path class="st6" d="M457.6,204.8h-0.8v-1.6h0.3c0.5,0,0.9-0.5,0.9-1.1l0,0c0-0.6-0.4-1.1-0.9-1.1h-1v-6.6c0-0.6-0.4-1.1-0.9-1.1
			h0c-0.5,0-0.9,0.5-0.9,1.1v6.6h-1c-0.5,0-0.9,0.5-0.9,1.1l0,0c0,0.6,0.4,1.1,0.9,1.1h0.3v1.6h-0.8c-0.6,0-1.1,0.6-1.1,1.2v20.7
			c0,0.7,0.5,1.2,1.1,1.2h5c0.6,0,1.1-0.6,1.1-1.2V206C458.7,205.3,458.2,204.8,457.6,204.8z"/>
		<path class="st8" d="M461.8,203.5h-2.5c-0.7,0-1.2,0.5-1.2,1.2v22.1c0,0.7,0.5,1.2,1.2,1.2h2.5V203.5z"/>
		<path class="st6" d="M461.8,209c-0.4,0.1-0.6,0.4-0.6,0.8v4.6c0,0.4,0.3,0.7,0.6,0.8V209z"/>
		<path class="st6" d="M461.8,216.6c-0.3,0-0.6,0.3-0.6,0.7v0.6c0,0.4,0.3,0.6,0.6,0.7V216.6z"/>
		<path class="st6" d="M461.8,220.5c-0.3,0-0.6,0.3-0.6,0.7v0.6c0,0.4,0.3,0.6,0.6,0.7V220.5z"/>
		<path class="st4" d="M456,212.9h-8.5c-0.4,0-0.7,0.3-0.7,0.7v13.6c0,0.4,0.3,0.7,0.7,0.7h8.5c0.4,0,0.7-0.3,0.7-0.7v-13.6
			C456.7,213.3,456.4,212.9,456,212.9z"/>
		<path class="st7" d="M437.9,191.2H409c-1.4,0-2.5,1.1-2.5,2.5v31.9c0,1.4,1.1,2.5,2.5,2.5h28.9c1.4,0,2.5-1.1,2.5-2.5v-31.9
			C440.4,192.3,439.3,191.2,437.9,191.2z"/>
		<path class="st8" d="M443.4,212.9h-8.5c-0.4,0-0.7,0.3-0.7,0.7v13.6c0,0.4,0.3,0.7,0.7,0.7h8.5c0.4,0,0.7-0.3,0.7-0.7v-13.6
			C444.2,213.3,443.8,212.9,443.4,212.9z"/>
	</g>
	<g>
		<path class="st5" d="M294.5,219.1h8.8c0.6,0,1.1,0.5,1.1,1.1v6.6c0,0.6-0.5,1.1-1.1,1.1h-8.8c-0.6,0-1.1-0.5-1.1-1.1v-6.6
			C293.4,219.6,293.9,219.1,294.5,219.1z"/>
		<path class="st7" d="M308.7,204.8h24.2c0.9,0,1.7,0.8,1.7,1.7v19.8c0,0.9-0.8,1.7-1.7,1.7h-24.2c-0.9,0-1.7-0.8-1.7-1.7v-19.8
			C307,205.6,307.7,204.8,308.7,204.8z"/>
		<path class="st6" d="M320.3,212.2h16.5c0.6,0,1.2,0.5,1.2,1.2v13.5c0,0.6-0.5,1.2-1.2,1.2h-16.5c-0.6,0-1.2-0.5-1.2-1.2v-13.5
			C319.1,212.7,319.7,212.2,320.3,212.2z"/>
		<path class="st5" d="M315.8,216.9h5.5c0.3,0,0.5,0.2,0.5,0.5v10.2c0,0.3-0.2,0.5-0.5,0.5h-5.5c-0.3,0-0.5-0.2-0.5-0.5v-10.2
			C315.3,217.1,315.5,216.9,315.8,216.9z"/>
	</g>
	<g>
		<polygon class="st9" points="319.1,76.4 305.4,76.4 308.9,70.3 308.9,62.6 315.5,62.6 315.5,70.3 		"/>
		<g>
			<path class="st10" d="M322.3,83.3c-0.3,0.8-1.1,1.4-2,1.4h-16.2c-0.9,0-1.7-0.6-2-1.4c-0.2-0.6-0.1-1.2,0.2-1.8l3.1-5.2h7.5v4.2
				h2v-4.2h4.3l3,5.2C322.5,82.1,322.5,82.7,322.3,83.3z"/>
			<path class="st11" d="M308.2,78.4c-1.3,0-2.3,1-2.3,2.3c0,1.3,1,2.3,2.3,2.3c1.3,0,2.3-1,2.3-2.3
				C310.5,79.4,309.5,78.4,308.2,78.4z M308.2,81.6c-0.5,0-0.9-0.4-0.9-0.9c0-0.5,0.4-0.9,0.9-0.9c0.5,0,0.9,0.4,0.9,0.9
				C309.1,81.2,308.7,81.6,308.2,81.6z"/>
			<path class="st11" d="M318.2,80.5c0,0.7-0.6,1.3-1.3,1.3c-0.7,0-1.3-0.6-1.3-1.3c0-0.7,0.6-1.3,1.3-1.3
				C317.6,79.2,318.2,79.8,318.2,80.5L318.2,80.5z"/>
			<path class="st11" d="M319.5,82.6c0,0.5-0.4,0.9-0.9,0.9c-0.5,0-0.9-0.4-0.9-0.9c0-0.5,0.4-0.9,0.9-0.9
				C319.1,81.7,319.5,82.1,319.5,82.6L319.5,82.6z"/>
			<rect x="308.9" y="65.1" class="st12" width="3.3" height="1.9"/>
			<polygon class="st12" points="315.5,65.1 315.5,67.1 314.8,67.1 314.8,65.2 312.9,65.2 312.9,67.1 312.2,67.1 312.2,65.1 			"/>
			<path class="st13" d="M310.9,69.5c0,0.6-0.9,0.6-0.9,0V68c0-0.6,0.9-0.6,0.9,0V69.5z"/>
			<path class="st13" d="M308.4,74.7c0,0.3-0.3,0.6-0.6,0.6c-0.3,0-0.6-0.3-0.6-0.6c0-0.3,0.3-0.6,0.6-0.6
				C308.1,74.1,308.4,74.4,308.4,74.7L308.4,74.7z"/>
			<rect x="312.9" y="60" class="st11" width="2" height="5.2"/>
			<rect x="312.9" y="52.1" class="st11" width="2" height="7.9"/>
			<rect x="312.9" y="65.2" class="st11" width="2" height="1.8"/>
			<rect x="312.9" y="76.4" class="st14" width="2" height="4.2"/>
			<rect x="312.9" y="67.1" class="st11" width="2" height="9.3"/>
			<path class="st9" d="M308.1,60h4.8v5.2h-4.8c-0.5,0-1-0.4-1-1v-3.3C307.2,60.4,307.6,60,308.1,60L308.1,60z"/>
			<path class="st9" d="M317.3,60.9v3.3c0,0.5-0.4,1-1,1h-1.5V60h1.5C316.9,60,317.3,60.4,317.3,60.9L317.3,60.9z"/>
			<path class="st13" d="M309.1,63.9c0,0.6-0.9,0.6-0.9,0v-2.6c0-0.6,0.9-0.6,0.9,0V63.9z"/>
		</g>
	</g>
	<g>
		<path class="st15" d="M345.8,67.7l-8,14.5v2.1h20v-2L350,67.5V55.4c0,0-1.7-1.1-4.2,0L345.8,67.7"/>
		<polygon class="st16" points="337.5,82.9 341.6,82.9 346.7,68 346.7,55.1 345.8,55.4 345.8,67.5 		"/>
		<polygon class="st11" points="347.8,54.9 347.8,69.6 347.8,82.9 355.1,82.9 349.2,69.4 349.2,55 		"/>
	</g>
	<g>
		<path class="st9" d="M449.3,85.2h-6.1V56.4c0,0,0.6-0.6,3-0.6c2.4,0,3.1,0.6,3.1,0.6V85.2z"/>
		<rect x="446.7" y="55.8" class="st17" width="1.1" height="29.3"/>
		<rect x="443.1" y="56.2" class="st18" width="0.7" height="29"/>
	</g>
	<g>
		<path class="st19" d="M405.3,75.7H400V54.1c0,0,1.4-0.2,2.6-0.2c1.2,0,2.6,0.2,2.6,0.2V75.7z"/>
		<polygon class="st20" points="401.3,72.8 399.9,73.7 399.9,54.1 401.3,53.9 		"/>
		<polygon class="st21" points="403.7,73.6 402.9,73.6 402.9,53.9 403.7,53.9 		"/>
		<circle class="st9" cx="402.6" cy="79.4" r="6.9"/>
		<path class="st20" d="M396.7,79.5c0-3.7,2.9-6.7,6.6-6.9c-0.3,0-0.6-0.1-0.8-0.1c-3.8,0-6.9,3.1-6.9,6.9c0,3.8,3.1,6.9,6.9,6.9
			c0.1,0,0.2,0,0.3,0C399.4,86,396.7,83.1,396.7,79.5z"/>
	</g>
	<g>
		<path class="st19" d="M329.2,145h-6.6v-16.6c0,0,1.8-0.2,3.3-0.2c1.5,0,3.3,0.2,3.3,0.2V145z"/>
		<polygon class="st20" points="324.2,141.5 322.5,142.6 322.5,128.5 324.2,128.3 		"/>
		<polygon class="st21" points="327.3,142.4 326.3,142.4 326.2,128.2 327.3,128.3 		"/>
		<circle class="st9" cx="325.9" cy="149.8" r="8.6"/>
		<path class="st20" d="M318.5,149.9c0-4.7,3.7-8.4,8.3-8.6c-0.3,0-0.7-0.1-1.1-0.1c-4.7,0-8.6,3.9-8.6,8.6c0,4.8,3.8,8.6,8.6,8.6
			c0.1,0,0.2,0,0.3,0C321.8,157.9,318.5,154.3,318.5,149.9z"/>
		<ellipse class="st21" cx="328.4" cy="147.4" rx="2.4" ry="2"/>
	</g>
	<rect x="361.7" y="127.3" class="st9" width="7.6" height="3.5"/>
	<rect x="363.5" y="129" class="st9" width="4" height="12.7"/>
	<polygon class="st9" points="373,147.6 359.1,145.5 365.4,134.5 	"/>
	<polygon class="st22" points="378.2,156.6 352.7,156.6 359.1,145.5 373,147.6 	"/>
	<path class="st11" d="M370.6,151.3c0,0.7-0.6,1.2-1.2,1.2c-0.7,0-1.2-0.6-1.2-1.2c0-0.7,0.6-1.2,1.2-1.2
		C370,150.1,370.6,150.6,370.6,151.3z"/>
	<rect x="363.5" y="130.8" class="st23" width="4" height="2.2"/>
	<rect x="364.3" y="131.5" class="st13" width="1.1" height="6.5"/>
	<g>
		<path class="st3" d="M591.3,100H614c1.1,0,1.9,0.9,1.9,1.9v36.1c0,1.1-0.9,1.9-1.9,1.9h-22.7c-1.1,0-1.9-0.9-1.9-1.9V102
			C589.4,100.9,590.3,100,591.3,100z"/>
		<path class="st6" d="M619,100h11.5c0.5,0,1,0.4,1,1v38.1c0,0.5-0.4,1-1,1H619c-0.5,0-1-0.4-1-1V101C618,100.5,618.4,100,619,100z"
			/>
		<path class="st7" d="M628.7,92.5h13.4c0.6,0,1.1,0.5,1.1,1.1v45.3c0,0.6-0.5,1.1-1.1,1.1h-13.4c-0.6,0-1.1-0.5-1.1-1.1V93.6
			C627.5,93,628.1,92.5,628.7,92.5z"/>
		<path class="st5" d="M623.8,121.5H647c0.7,0,1.4,0.6,1.4,1.4v15.8c0,0.7-0.6,1.4-1.4,1.4h-23.2c-0.7,0-1.4-0.6-1.4-1.4v-15.8
			C622.4,122.1,623,121.5,623.8,121.5z"/>
		<path class="st8" d="M652.3,106.1h11.5c0.5,0,1,0.4,1,1v32c0,0.5-0.4,1-1,1h-11.5c-0.5,0-1-0.4-1-1v-32
			C651.3,106.5,651.8,106.1,652.3,106.1z"/>
		<path class="st5" d="M595.7,109h13.8c0.7,0,1.3,0.6,1.3,1.3v7.6c0,0.7-0.6,1.3-1.3,1.3h-13.8c-0.7,0-1.3-0.6-1.3-1.3v-7.6
			C594.4,109.6,595,109,595.7,109z"/>
		<path class="st5" d="M595.5,121.5h14.2c0.6,0,1.1,0.5,1.1,1.1v1c0,0.6-0.5,1.1-1.1,1.1h-14.2c-0.6,0-1.1-0.5-1.1-1.1v-1
			C594.4,122,594.9,121.5,595.5,121.5z"/>
		<path class="st5" d="M595.5,127.8h14.2c0.6,0,1.1,0.5,1.1,1.1v1c0,0.6-0.5,1.1-1.1,1.1h-14.2c-0.6,0-1.1-0.5-1.1-1.1v-1
			C594.4,128.3,594.9,127.8,595.5,127.8z"/>
		<path class="st6" d="M658,119.7c1.6,0,2.8,1.5,2.8,3.4c0,1.9-1.3,3.4-2.8,3.4c-1.6,0-2.8-1.5-2.8-3.4
			C655.2,121.2,656.5,119.7,658,119.7z"/>
	</g>
</g>
<g>
	
		<rect x="59" y="15.5" transform="matrix(-1 -1.224647e-16 1.224647e-16 -1 176.1399 135.8772)" class="st24" width="58.2" height="105"/>
	
		<rect x="52.4" y="15.5" transform="matrix(-1 -1.224647e-16 1.224647e-16 -1 168.127 135.8772)" class="st25" width="63.2" height="105"/>
	
		<rect x="38.1" y="42.8" transform="matrix(-1.836970e-16 1 -1 -1.836970e-16 152.0022 -16.125)" class="st13" width="91.9" height="50.2"/>
	<g>
		
			<rect x="77.3" y="39.8" transform="matrix(-1.836970e-16 1 -1 -1.836970e-16 131.3872 -36.74)" class="st25" width="13.6" height="15.1"/>
		
			<rect x="77.3" y="60.4" transform="matrix(-1.836970e-16 1 -1 -1.836970e-16 152.0022 -16.125)" class="st25" width="13.6" height="15.1"/>
		
			<rect x="77.3" y="81" transform="matrix(-1.836970e-16 1 -1 -1.836970e-16 172.6173 4.4901)" class="st25" width="13.6" height="15.1"/>
	</g>
</g>
<rect x="402.7" y="200.9" class="st26" width="42.1" height="25.7"/>
<polygon class="st13" points="271.2,221.5 239.3,250.4 239.3,372.2 677.6,372.2 677.6,244.9 643.2,215.5 "/>
<g>
	<path class="st27" d="M505.6,197.7H351.3c-2.4,0-4.4-2-4.4-4.4v-94c0-2.4,2-4.4,4.4-4.4h154.2c2.4,0,4.4,2,4.4,4.4v94
		C510,195.8,508,197.7,505.6,197.7z"/>
	<rect x="351.3" y="101" class="st28" width="153.4" height="88.2"/>
	<path class="st29" d="M505.5,202.1h-154c-2.6,0-4.7-2.1-4.7-4.7v-8.6h163.4v8.6C510.2,200,508.1,202.1,505.5,202.1z"/>
	<path class="st22" d="M497.8,111.4H358.2v-2.9c0-1.4,1.1-2.5,2.5-2.5h134.7c1.4,0,2.5,1.1,2.5,2.5V111.4z"/>
	<rect x="358.2" y="111.4" class="st0" width="139.6" height="77.5"/>
	<rect x="361.9" y="153.4" class="st28" width="40.9" height="24.1"/>
	<rect x="452.3" y="153.4" class="st28" width="40.9" height="24.1"/>
	<rect x="358.4" y="116.2" class="st30" width="139.5" height="32.3"/>
	<rect x="407.1" y="153.4" class="st28" width="40.9" height="24.1"/>
	<g>
		<circle class="st31" cx="361.8" cy="108.5" r="1"/>
		<circle class="st31" cx="365.4" cy="108.5" r="1"/>
		<circle class="st31" cx="369.1" cy="108.5" r="1"/>
	</g>
	<polygon class="st0" points="420.4,168.4 426.9,158.2 434.8,167.9 	"/>
	<rect x="467.8" y="160" class="st0" width="8.8" height="8.8"/>
	<rect x="403.8" y="124.2" class="st13" width="57.3" height="3"/>
	<rect x="409.1" y="131.1" class="st13" width="44.1" height="3"/>
	<path class="st0" d="M382.2,169.3H382c-2.4,0-4.3-1.9-4.3-4.3v-0.2c0-2.4,1.9-4.3,4.3-4.3h0.2c2.4,0,4.3,1.9,4.3,4.3v0.2
		C386.5,167.4,384.6,169.3,382.2,169.3z"/>
</g>
<rect x="238.7" y="250.4" class="st32" width="400.4" height="117.3"/>
<linearGradient id="SVGID_1_" gradientUnits="userSpaceOnUse" x1="436.7516" y1="358.273" x2="449.6618" y2="358.273">
	<stop  offset="0" style="stop-color:#35396F"/>
	<stop  offset="1" style="stop-color:#3B4D94"/>
</linearGradient>
<path class="st33" d="M449.7,356.4c0,0-9.9-4.3-12.9,4.7"/>
<rect x="407.7" y="262" transform="matrix(6.123234e-17 -1 1 6.123234e-17 135.0767 767.9892)" class="st34" width="87.8" height="108.8"/>
<linearGradient id="SVGID_2_" gradientUnits="userSpaceOnUse" x1="375.386" y1="337.8766" x2="624.7758" y2="337.8766">
	<stop  offset="0" style="stop-color:#35396F"/>
	<stop  offset="1" style="stop-color:#3B4D94"/>
</linearGradient>
<path class="st35" d="M375.4,387.3c0,0,22.1-53.3,49.3-72.4c27.2-19.1,42.8-13.4,42.8-13.4s3.4-5.7,26.6-11.7
	c23.1-6,69.4,11.1,69.4,11.1l60,15.8c0,0,7.4,44.6-13.7,55.7c-21.1,11.1-18.1,5-28.2,10.1s-40.2,2-67.4-5
	c-27.2-7-32.2-16.1-32.2-16.1"/>
<g>
	<g>
		
			<linearGradient id="SVGID_3_" gradientUnits="userSpaceOnUse" x1="-1988.2832" y1="294.7358" x2="-2100.5117" y2="300.6907" gradientTransform="matrix(-1 0 0 1 -1848.4485 0)">
			<stop  offset="0" style="stop-color:#35396F"/>
			<stop  offset="1" style="stop-color:#3B4D94"/>
		</linearGradient>
		<path class="st36" d="M132.8,355.5c2.7,1.6,7.2,1,9.9,2.5c13.1,7.3,21-7.2,34.1-2.5c0.4-3.1,3.3-60.9,3.9-63v0
			c0.6-2.1,1.4-3.4,2.4-3.4c2.1,0,4.1,61.2,4.8,68.8c2.6,0.9,16-2.6,18.6-1.9c11.1,3.2,14-1.5,24.8,0c-0.6-22.4-5.6-102.4-10.9-115
			v0c-0.7-1.8-1.5-3.1-2.4-3.8c-4.5-3.8-20.5-4.8-36.8-4.8c-4,0-8,0.1-11.9,0.2c-16,0.4-29.7,1.5-30.2,1.5h0
			C139,234.2,135.2,321.9,132.8,355.5z"/>
		<path class="st37" d="M180.7,292.6c0.6-2.1,1.4-3.4,2.4-3.4c2.1,0,3.3,6.4,4.1,14c2.6,0.9,5.2,1.7,7.8,2.4
			c-5-16.8-5.2-34.4-8.5-33.5C180.6,273.9,180.7,292.6,180.7,292.6z"/>
		<path class="st37" d="M139.9,282.5c-0.7-17,3.8-32,17.7-31.6c26.4,0.8,46.4-4,47.5-4.3c0,0,0,0,0.1,0l-2.9-1.1l-14.1-5.5
			l-18.9-7.3c-16,0.4-29.7,1.5-30.2,1.5h0c0,0-4.9,9.9-7.3,43.6C134.4,279.5,137.2,281,139.9,282.5z"/>
	</g>
	<g>
		<path class="st38" d="M243.1,162.6c0,0,2.2,14.3,3,23.7c0.9,9.4-1.7,16.2-11.1,17c-9.4,0.9-15.3-8.5-17.9-16.2l4.3-23.8
			L243.1,162.6z"/>
		<path class="st39" d="M178,247.5c14.7,0.6,25-0.1,32.1-1.8c12.2-2.9,14.6-8.4,13-14.4c-2.6-9.4-6.8-28.9-1.7-52.7l16-33.2
			c0,0-4.9-18.6-20.2-25.5c-2.8-1.3-5.2-2.4-7.3-3.3c-11-5.1-13.9-6.9-13.9-6.9h-16.2c0,0-2.5,0.5-6.2,1.4
			c-8.3,2.1-22.6,6.7-29.2,14.2c0,0,0.3,11.6,0.4,26.8c0.1,24.8-0.4,59.2-4.1,68.2C134.7,234.8,138.1,245.8,178,247.5z"/>
		<path class="st38" d="M178,247.5c14.7,0.6,25-0.1,32.1-1.8c-16.5,1.6-35.7-10.3-30.4-28c7.7-25.5,38.3-40,38.3-40
			s-0.9-26.4-34.9-15.3c-34,11.1-23-21.4-23-21.4l-15.5,11c0.1,24.8-0.4,59.2-4.1,68.2C134.7,234.8,138.1,245.8,178,247.5z"/>
		<path class="st38" d="M173.5,111.1c6.8,16.1,16.8,24.9,28.3,23.3c9.6-1.4,8.7-13.3,8-17.8c-11-5.1-13.9-6.9-13.9-6.9h-16.2
			C179.7,109.7,177.2,110.2,173.5,111.1z"/>
	</g>
	<g>
		<g>
			<path class="st40" d="M191.6,185.5H231c1.9,0,3.5-1.3,3.9-3.1l7.5-32.8c0.6-2.5-1.3-4.9-3.9-4.9h-38.7c-1.8,0-3.4,1.2-3.9,3
				l-8.2,32.8C187.1,183.1,189,185.5,191.6,185.5z"/>
			<path class="st27" d="M194.2,185.5H231c1.9,0,3.5-1.3,3.9-3.1l7.5-32.8c0.6-2.5-1.3-4.9-3.9-4.9h-36.1c-1.8,0-3.4,1.2-3.9,3
				l-8.2,32.8C189.7,183.1,191.6,185.5,194.2,185.5z"/>
		</g>
		<path class="st41" d="M179.7,165l4.3-2.6c0,0,8.5-13.6,10.2-12.8c1.7,0.9-0.9,9.4,0,10.2s15.3-0.9,17.9-1.7
			c2.6-0.9,7.7-1.7,1.7,5.1c-6,6.8-8.5,12.8-15.3,12.8c-6.8,0-10.2-0.9-10.2-0.9l-5.1,2.6L179.7,165z"/>
		<path class="st39" d="M157.6,150.5c0,0-9.4,23.8-4.3,23.8c5.1,0,26.4-11.1,26.4-11.1l6.8,14.5c0,0-35.7,27.2-46.8,23.8
			c-11.1-3.4-13.6-14.5-8.5-42.5c5.1-28.1,11.9-36.6,19.6-35.7C158.5,124.2,164.4,131.8,157.6,150.5z"/>
		<path class="st39" d="M169.2,168.5c0,0,5.5,22,8,22.9c2.6,0.9,9.4-13.6,9.4-13.6l-6.8-14.5C179.7,163.3,174.7,163.5,169.2,168.5z"
			/>
		<path class="st41" d="M237.6,173.5c-0.9,0-5.1-4.3-3.4-10.2c1.7-6,1.7-6.8,4.3-7.7c2.6-0.9,4.3-2.6,5.1-0.9
			C244.4,156.5,242.7,171,237.6,173.5"/>
	</g>
	<g>
		<path class="st42" d="M183.9,103c0,0-3.3-13.7-4.2-26.4c-0.9-12.8,1.7-19.6,6.8-17c0,0-3.4-11.9,11.9-13.6
			c15.3-1.7,41.7,1.7,30.6,19.6c0,0,5.1,1.7,2.6,10.2c-2.6,8.5-11.1,13.6-11.1,13.6L183.9,103z"/>
		<path class="st41" d="M188.3,89.3c0,0-1.7,11.1-8.5,21.3c0,0,9.3,18.4,20.4,16.2c8.5-1.7-0.9-10.2,5.1-17.9L188.3,89.3z"/>
		<path class="st41" d="M227,71.8c0,0-6.8,40-20.4,40c-13.6,0-18.7-16.2-18.7-22.1c0,0-5.5-1.3-4.7-8.9s6-6,6.8,0
			c0,0,4.3-0.9,4.3-8.5s0-7.7,0-7.7s4.3,0.9,14.5,7.7C218.9,79.1,224.8,74.8,227,71.8z"/>
	</g>
</g>
<g>
	<g>
		<g>
			<g>
				<path class="st43" d="M68.1,217.5l-28,97.3l64,18.4l28-97.3L68.1,217.5z"/>
				
					<ellipse transform="matrix(0.6583 -0.7528 0.7528 0.6583 -153.4828 143.0847)" class="st26" cx="80.9" cy="240.6" rx="11.5" ry="11.5"/>
				<path class="st13" d="M78.3,249.4c-4.9-1.4-7.7-6.5-6.3-11.3c1.4-4.9,6.5-7.7,11.3-6.3c4.9,1.4,7.7,6.5,6.3,11.3
					C88.2,248,83.2,250.8,78.3,249.4z"/>
				<g>
					
						<rect x="63.8" y="256" transform="matrix(0.961 0.2765 -0.2765 0.961 74.3509 -10.5124)" class="st26" width="21.2" height="4.8"/>
					
						<rect x="51" y="293" transform="matrix(0.961 0.2765 -0.2765 0.961 85.7926 -3.9432)" class="st26" width="11.7" height="18.5"/>
					
						<rect x="90.8" y="304.4" transform="matrix(0.961 0.2765 -0.2765 0.961 90.5082 -14.4924)" class="st26" width="11.7" height="18.5"/>
					
						<rect x="70.9" y="298.7" transform="matrix(0.961 0.2765 -0.2765 0.961 88.1495 -9.2178)" class="st26" width="11.7" height="18.5"/>
					
						<rect x="87" y="261.7" transform="matrix(0.961 0.2765 -0.2765 0.961 76.6952 -15.7575)" class="st26" width="14.4" height="4.8"/>
					
						<rect x="60.8" y="270.3" transform="matrix(0.961 0.2765 -0.2765 0.961 78.4165 -13.482)" class="st13" width="52.5" height="2"/>
					
						<rect x="60.1" y="270.7" transform="matrix(0.961 0.2765 -0.2765 0.961 77.9767 -9.6411)" class="st13" width="26.1" height="2"/>
					
						<rect x="89.7" y="277.9" transform="matrix(0.961 0.2765 -0.2765 0.961 80.9688 -16.3351)" class="st13" width="17.5" height="2"/>
					<rect x="58.7" y="276.9" transform="matrix(0.961 0.2765 -0.2765 0.961 79.945 -11.188)" class="st13" width="42" height="2"/>
					
						<rect x="57.4" y="281.8" transform="matrix(0.961 0.2765 -0.2765 0.961 81.367 -11.512)" class="st13" width="48.2" height="2"/>
					
						<rect x="57.1" y="279.9" transform="matrix(0.961 0.2765 -0.2765 0.961 79.9992 -5.5966)" class="st13" width="5.6" height="2"/>
					
						<rect x="66.3" y="285.3" transform="matrix(0.961 0.2765 -0.2765 0.961 82.2298 -10.5858)" class="st13" width="24.6" height="2"/>
					
						<rect x="55" y="290.4" transform="matrix(0.961 0.2765 -0.2765 0.961 83.7382 -11.1038)" class="st13" width="52.5" height="2"/>
				</g>
				<path class="st44" d="M66.9,221.9l-26.8,93l61.9,17.8l25.1-96.2L66.9,221.9z"/>
			</g>
			<g>
				<path class="st45" d="M60.7,220.9L36,319.1l64.6,16.2l24.6-98.2L60.7,220.9z"/>
				
					<ellipse transform="matrix(0.9005 -0.4348 0.4348 0.9005 -98.5129 56.4894)" class="st26" cx="74.2" cy="243.5" rx="11.5" ry="11.5"/>
				
					<ellipse transform="matrix(0.1801 -0.9837 0.9837 0.1801 -178.7127 272.6479)" class="st13" cx="74.2" cy="243.5" rx="9.1" ry="9.1"/>
				<g>
					
						<rect x="57.8" y="259.1" transform="matrix(0.97 0.2431 -0.2431 0.97 65.6358 -8.7843)" class="st26" width="21.2" height="4.8"/>
					
						<rect x="46.5" y="296.7" transform="matrix(0.97 0.2431 -0.2431 0.97 75.9586 -3.5499)" class="st26" width="11.7" height="18.5"/>
					
						<rect x="86.6" y="306.8" transform="matrix(0.97 0.2431 -0.2431 0.97 79.6087 -13.0058)" class="st26" width="11.7" height="18.5"/>
					
						<rect x="66.6" y="301.7" transform="matrix(0.97 0.2431 -0.2431 0.97 77.7851 -8.2778)" class="st26" width="11.7" height="18.5"/>
					
						<rect x="81.2" y="264.1" transform="matrix(0.97 0.2431 -0.2431 0.97 67.4514 -13.4858)" class="st26" width="14.4" height="4.8"/>
					<rect x="55.2" y="273" transform="matrix(0.97 0.2431 -0.2431 0.97 69.0626 -11.5707)" class="st13" width="52.5" height="2"/>
					<rect x="54.5" y="273.9" transform="matrix(0.97 0.2431 -0.2431 0.97 68.8522 -8.186)" class="st13" width="26.1" height="2"/>
					
						<rect x="84.3" y="280.2" transform="matrix(0.97 0.2431 -0.2431 0.97 71.1686 -14.1862)" class="st13" width="17.5" height="2"/>
					<rect x="53.3" y="279.8" transform="matrix(0.97 0.2431 -0.2431 0.97 70.5061 -9.6306)" class="st13" width="42" height="2"/>
					<rect x="52.2" y="284.7" transform="matrix(0.97 0.2431 -0.2431 0.97 71.737 -9.9792)" class="st13" width="48.2" height="2"/>
					<rect x="51.8" y="283.5" transform="matrix(0.97 0.2431 -0.2431 0.97 70.8074 -4.7349)" class="st13" width="5.6" height="2"/>
					<rect x="61.3" y="288.3" transform="matrix(0.97 0.2431 -0.2431 0.97 72.5352 -9.207)" class="st13" width="24.6" height="2"/>
					
						<rect x="50.1" y="293.3" transform="matrix(0.97 0.2431 -0.2431 0.97 73.8328 -9.7294)" class="st13" width="52.5" height="2"/>
				</g>
			</g>
		</g>
	</g>
</g>
<polygon class="st46" points="23.6,279.5 39.4,360.6 113.6,360.6 133.5,283.6 "/>
<linearGradient id="SVGID_4_" gradientUnits="userSpaceOnUse" x1="97.1216" y1="318.6281" x2="133.5273" y2="318.6281">
	<stop  offset="0" style="stop-color:#35396F"/>
	<stop  offset="1" style="stop-color:#3B4D94"/>
</linearGradient>
<polygon class="st47" points="111.6,284.3 97.1,353.7 115.7,353.7 133.5,283.6 "/>
<g>
	<rect x="112.2" y="339.6" class="st48" width="62.9" height="15"/>
	<rect x="112.2" y="342.1" class="st46" width="62.9" height="1.6"/>
	<rect x="112.2" y="346.4" class="st46" width="62.9" height="1.6"/>
	<rect x="112.2" y="350.8" class="st46" width="62.9" height="1.6"/>
	<rect x="174.7" y="339.6" class="st49" width="39" height="15"/>
	<rect x="174.7" y="339.6" class="st50" width="0.7" height="15"/>
	<g>
		<rect x="175.1" y="342.1" class="st46" width="38.7" height="1.6"/>
		<rect x="175.1" y="346.4" class="st46" width="38.7" height="1.6"/>
		<rect x="175.1" y="350.8" class="st46" width="38.7" height="1.6"/>
	</g>
</g>
<g>
	<rect x="112.2" y="324.8" class="st48" width="62.9" height="15"/>
	<rect x="112.2" y="327.3" class="st46" width="62.9" height="1.6"/>
	<rect x="112.2" y="331.7" class="st46" width="62.9" height="1.6"/>
	<rect x="112.2" y="336" class="st46" width="62.9" height="1.6"/>
	<rect x="174.7" y="324.8" class="st49" width="39" height="15"/>
	<rect x="174.7" y="324.8" class="st50" width="0.7" height="15"/>
	<g>
		<rect x="175.1" y="327.3" class="st46" width="38.7" height="1.6"/>
		<rect x="175.1" y="331.7" class="st46" width="38.7" height="1.6"/>
		<rect x="175.1" y="336" class="st46" width="38.7" height="1.6"/>
	</g>
</g>
<path class="st51" d="M189.2,102.5c0,0,9.2,6.9,14.4,8.9c0,0-0.5,3.1-0.5,5C203.1,116.4,195.5,114.9,189.2,102.5z"/>
<g>
	<rect x="425.7" y="50.8" class="st13" width="52.8" height="64.1"/>
	<rect x="425.7" y="114.9" class="st52" width="52.8" height="2.5"/>
	<rect x="435.5" y="55.6" class="st53" width="33.3" height="5.3"/>
	<rect x="431.9" y="64.8" class="st53" width="40.6" height="3.2"/>
	<rect x="431.9" y="71.7" class="st53" width="40.6" height="3.2"/>
	<rect x="431.9" y="78.6" class="st53" width="40.6" height="3.2"/>
	<rect x="431.9" y="85.5" class="st53" width="40.6" height="3.2"/>
	<rect x="431.9" y="92.1" class="st53" width="19.8" height="17.5"/>
	<rect x="455.1" y="92.1" class="st53" width="17.3" height="2.9"/>
	<rect x="455.1" y="98" class="st53" width="17.3" height="2.9"/>
	<rect x="455.1" y="103.9" class="st53" width="17.3" height="2.9"/>
</g>
<rect x="278.8" y="261.9" transform="matrix(6.123234e-17 -1 1 6.123234e-17 6.3293 639.0575)" class="st34" width="87.8" height="108.8"/>
<path class="st27" d="M371.6,218.6l-19.7,19.3h158.9l-17.5-19.3C493.3,218.6,375.5,218.6,371.6,218.6z"/>
<rect x="352" y="237.5" class="st40" width="152" height="4.6"/>
<path class="st54" d="M333.5,281.9h-21.5c-9.4,0-18.3-3.8-24.7-10.6l0,0h71l0,0C351.8,278.1,342.8,281.9,333.5,281.9z"/>
<path class="st54" d="M462.3,282h-21.5c-9.4,0-18.3-3.8-24.7-10.6l0,0h71l0,0C480.6,278.2,471.7,282,462.3,282z"/>
<ellipse class="st38" cx="305.8" cy="237.9" rx="22.7" ry="8.2"/>
<g>
	<path class="st29" d="M273.8,212.6c0,0-0.7,11.6,2.5,19.3c3.2,7.7,7.2,10.1,12.4,10.6c5.2,0.5,13.8,1,18-4.9
		c4.2-5.9,4.4-17.8,4.2-25.5c-0.2-7.7-20.5-6.7-23.2-6.4S275,207.6,273.8,212.6z"/>
	<ellipse class="st40" cx="292" cy="212" rx="15.9" ry="4.3"/>
	<path class="st55" d="M304.5,216.8c0,0,0.7,11.8-4.1,23.1c0,0,3.9-0.3,5.3-3.8c2.7-6.7,3.1-15.4,3.3-20.9
		C309,215.1,307.4,216.1,304.5,216.8z"/>
</g>
<path class="st56" d="M310,217.6c0,0,4.5-3.9,7-0.2s-3.4,17-8.8,15.8"/>
<rect x="402.8" y="202.2" class="st57" width="41.9" height="3.8"/>
<rect x="268.1" y="271.3" class="st58" width="109.9" height="3.3"/>
<g>
	<path class="st13" d="M271.6,145.1h-21c-2.6,0-4.7-2.1-4.7-4.7v-29.8c0-2.6,2.1-4.7,4.7-4.7h21c2.6,0,4.7,2.1,4.7,4.7v29.8
		C276.3,143,274.2,145.1,271.6,145.1z"/>
	<g>
		<path class="st59" d="M272.4,112.8c0,0.5-0.2,0.9-0.5,1.2c-0.3,0.3-0.7,0.5-1.2,0.5h-19.3c-0.9,0-1.6-0.7-1.6-1.6
			c0-0.5,0.2-0.9,0.5-1.2c0.3-0.3,0.7-0.5,1.2-0.5h19.3C271.6,111.2,272.4,111.9,272.4,112.8z"/>
		<linearGradient id="SVGID_5_" gradientUnits="userSpaceOnUse" x1="249.8413" y1="112.8075" x2="268.4401" y2="112.8075">
			<stop  offset="0" style="stop-color:#87B4D8"/>
			<stop  offset="1" style="stop-color:#9BC3EA"/>
		</linearGradient>
		<path class="st60" d="M268.4,112.8c0,0.5-0.2,0.9-0.5,1.2c-0.3,0.3-0.7,0.5-1.2,0.5h-15.3c-0.9,0-1.6-0.7-1.6-1.6
			c0-0.5,0.2-0.9,0.5-1.2c0.3-0.3,0.7-0.5,1.2-0.5h15.3C267.7,111.2,268.4,111.9,268.4,112.8z"/>
		<path class="st59" d="M272.4,120c0,0.5-0.2,0.9-0.5,1.2c-0.3,0.3-0.7,0.5-1.2,0.5h-19.3c-0.9,0-1.6-0.7-1.6-1.6
			c0-0.5,0.2-0.9,0.5-1.2c0.3-0.3,0.7-0.5,1.2-0.5h19.3C271.6,118.4,272.4,119.1,272.4,120z"/>
		<linearGradient id="SVGID_6_" gradientUnits="userSpaceOnUse" x1="249.8413" y1="119.986" x2="260.9353" y2="119.986">
			<stop  offset="0" style="stop-color:#87B4D8"/>
			<stop  offset="1" style="stop-color:#9BC3EA"/>
		</linearGradient>
		<path class="st61" d="M260.9,120c0,0.5-0.2,0.9-0.5,1.2c-0.3,0.3-0.7,0.5-1.2,0.5h-7.8c-0.9,0-1.6-0.7-1.6-1.6
			c0-0.5,0.2-0.9,0.5-1.2c0.3-0.3,0.7-0.5,1.2-0.5h7.8C260.2,118.4,260.9,119.1,260.9,120z"/>
		<path class="st59" d="M272.4,126.8c0,0.5-0.2,0.9-0.5,1.2c-0.3,0.3-0.7,0.5-1.2,0.5h-19.3c-0.9,0-1.6-0.7-1.6-1.6
			c0-0.5,0.2-0.9,0.5-1.2c0.3-0.3,0.7-0.5,1.2-0.5h19.3C271.6,125.2,272.4,125.9,272.4,126.8z"/>
		<linearGradient id="SVGID_7_" gradientUnits="userSpaceOnUse" x1="249.8413" y1="126.8382" x2="264.5246" y2="126.8382">
			<stop  offset="0" style="stop-color:#87B4D8"/>
			<stop  offset="1" style="stop-color:#9BC3EA"/>
		</linearGradient>
		<path class="st62" d="M264.5,126.8c0,0.5-0.2,0.9-0.5,1.2c-0.3,0.3-0.7,0.5-1.2,0.5h-11.4c-0.9,0-1.6-0.7-1.6-1.6
			c0-0.5,0.2-0.9,0.5-1.2c0.3-0.3,0.7-0.5,1.2-0.5h11.4C263.8,125.2,264.5,125.9,264.5,126.8z"/>
		<path class="st59" d="M272.4,134c0,0.5-0.2,0.9-0.5,1.2c-0.3,0.3-0.7,0.5-1.2,0.5h-19.3c-0.9,0-1.6-0.7-1.6-1.6
			c0-0.5,0.2-0.9,0.5-1.2c0.3-0.3,0.7-0.5,1.2-0.5h19.3C271.6,132.4,272.4,133.1,272.4,134z"/>
		<linearGradient id="SVGID_8_" gradientUnits="userSpaceOnUse" x1="249.8413" y1="134.0166" x2="260.9353" y2="134.0166">
			<stop  offset="0" style="stop-color:#87B4D8"/>
			<stop  offset="1" style="stop-color:#9BC3EA"/>
		</linearGradient>
		<path class="st63" d="M260.9,134c0,0.5-0.2,0.9-0.5,1.2c-0.3,0.3-0.7,0.5-1.2,0.5h-7.8c-0.9,0-1.6-0.7-1.6-1.6
			c0-0.5,0.2-0.9,0.5-1.2c0.3-0.3,0.7-0.5,1.2-0.5h7.8C260.2,132.4,260.9,133.1,260.9,134z"/>
	</g>
</g>
<path class="st57" d="M441.2,218.9c0,0,6.1,7.6,28.4,6.4l22,15.9l2.7-8.2l-26.6-12.8l-24.3-7.2C443.4,212.9,439,213.7,441.2,218.9z"
	/>
<g>
	<path class="st64" d="M525.3,89.4c0,0,2.1,6.9,0,13.9s-3.2,26.7,8.5,38.4c0,0,2.1,2.1,10.1,0c0,0,1.6,11.2-0.5,15.5
		s-17.1,9.1-24.5,14.9c-7.5,5.9-13.3,18.1-16,28.8c-2.7,10.7-11.2,48.5-21.3,58.6c0,0-10.1,3.2-25.1,4.8s-64.5,3.7-64.5,3.7
		s-18.7-4.8-26.1-2.1c-7.5,2.7-11.7,7.5-11.7,7.5s5.9,16.5,12.8,16.5c6.9,0,18.7-7.5,24.5-6.9c5.9,0.5,56.5,5.9,69.8,8.5
		s36.8,0.5,42.6-10.7c5.9-11.2,16.5-29.3,16.5-29.3l36.8-75.7l16.5-14.4l5.9-70.4C579.6,90.9,546.6,68,525.3,89.4z"/>
	<path class="st65" d="M525.5,91.1c0,0,7.5,7.6,8.3,11.6c0.8,4-4.3,5.9-4,10.9c0.3,5.1-0.3,18.7,8,27.2c0,0-2.4,4.3-6.9-1.9
		c-4.5-6.1-5.9-13.1-6.4-17.6c-0.5-4.5-0.9-9.4,0-14.9C525.3,101.5,527.9,100.1,525.5,91.1z"/>
	<path class="st66" d="M518.6,172.2c0,0,9.6-7.2,17.6,1.6c8,8.8,0.9,41.8-7.6,59.6c-4.8,10-8,17.2-8,17.2s9.2,7.2,14.8,22.4
		c5.6,15.2,4,41.6,0,47.2c-4,5.6-9.6,12-0.8,20c8.8,8,55.2,4.8,79.2-10.4c24-15.2-2.4-48.8-2.4-65.6s-0.8-28,3.2-49.6
		s-10.4-69.6-28-68s-12.8,20.8-24.8,19.2s-19.2-7.2-24-6.4C533,160.3,516.2,169,518.6,172.2z"/>
	<path class="st67" d="M608.2,243.4c0,0-16,0-22.4-3.2c0,0-1.6,12.8-8.8,27.2c-7.2,14.4-11.2,28-9.6,37.6c1.6,9.6,0.8,28.8-4,36.8
		s-33.6,3.2-34.4-4c-0.8-7.2,4.8-13.6,7.2-25.6c2.4-12,4-40.8-15.2-64c0,0,18.4-25.6,18.4-52.8s-11.2-28.8-20.8-24.8
		c0,0,11.2-10.4,19.2-11.2c0,0,35.2,7.2,47.2,18.4c12,11.2,25.6,56.8,25.6,56.8L608.2,243.4z"/>
	<path class="st42" d="M526.3,95.5c0,0-14.4-1.3-10.7-19.5s45.3-31.5,64.5-15.5c19.2,16,18.1,37.9,13.9,49.6
		c-4.3,11.7-13.3,22.4-13.3,22.4s1.1,4.8,6.9,5.3c5.9,0.5,32,0,41,17.1c9.1,17.1-8.5,17.6-5.3,32s21.9,18.7,10.1,41.6
		c-11.7,22.9-32,8.5-45.8,0.5c-13.9-8-18.7-1.1-28.3-9.1c-9.6-8-16.5-16-1.6-30.4s3.7-12.3-5.3-21.9c-9.1-9.6,9.6-22.9,10.1-32
		c0.5-9.1-16-8-16.5-13.3c0,0,3.7-8.5,0.5-17.6s-6.4,1.6-9.1-0.5c-2.7-2.1-2.1-7.5-5.9-13.3C527.9,85.1,524.5,87,526.3,95.5z"/>
	<path class="st68" d="M525.8,95.5c0,0-11.2-12.5-1.1-20c10.1-7.5,13.9,6.4,19.2,11.2s12.3,9.1,17.6,17.6s11.7,16.5,6.4,28.3
		c-5.3,11.7,1.6,16,5.9,24c4.3,8,7.5,19.7,4.3,30.9s1.1,37.3,1.1,37.3s-14.9,3.5-23.9-7.7c-9.1-11.2-6.4-15.3-1.6-22.8
		s14.8-12,10.2-17.2c-6.5-7.4-15.9-7.3-13.2-18c2.7-10.7,11.2-14.6,12.4-23.6c0-6.4-10.6-6.9-17-12.2c0,0,2.5-15.8,0.4-19.4
		c-2.2-3.7-3.4-2.9-8.2,0.8c0,0-4.4-9.2-7.2-15.2c-1.1-2.5-3.4-2.5-5,0.2S525.8,95.5,525.8,95.5z"/>
	<path class="st64" d="M497,233.8l-26.7-11.7c0,0-18.1-1.1-25.1-4.8c-6.9-3.7-2.1-7.5,2.7-6.4c4.8,1.1,11.2,5.9,10.7-2.1
		c-0.5-8-8-12.3-13.3-10.1c-5.3,2.1-8.5,3.2-8.5,3.2s-0.5-6.4,5.3-8.5s14.9-4.8,23.5-1.1c4.8,3.7,6.9,10.7,11.2,13.3
		c4.3,2.7,6.9,4.8,12.3,5.9c5.3,1.1,27.2,2.1,27.2,2.1L497,233.8z"/>
</g>
</svg>
