<svg id="Layer_1" data-name="Layer 1" xmlns="http://www.w3.org/2000/svg" viewBox="0 0 260.1 89.2"><defs><style>.cls-1{fill:#f41750;}.cls-2{fill:#06103c;}.cls-3{fill:#fff;}</style></defs><path class="cls-1" d="M92.1,67.8c0,10.6-3.3,19.5-10.6,26.6s-19,11.2-30.6,8.4c-7.8-1.8-14-6.3-18.8-12.7s-6.8-13.3-7.6-21c-.7-6-1.5-12-2.2-18.1S21,41.4,20.5,36.6A4.7,4.7,0,0,1,25,31.4a4.8,4.8,0,0,1,5.1,4.4l2.4,20c.7,5.9,1.3,11.9,2.4,17.8A24.6,24.6,0,0,0,43.5,88a22.3,22.3,0,0,0,14.3,5.6,22.1,22.1,0,0,0,15-4.9A25.8,25.8,0,0,0,82.4,72c.2-1.4-.4-2-1.8-1.9L52.1,73.9c-2.4.3-4.6.3-6.2-1.9A5,5,0,0,1,49,64c3.5-.6,7-.9,10.5-1.4l18.3-2.3,8.9-1a4.8,4.8,0,0,1,5.1,4.2A37.3,37.3,0,0,1,92.1,67.8Z" transform="translate(-17.4 -14.6)"/><path class="cls-2" d="M209.9,75.5V62.3c0-2.7,1.1-3.7,3.7-3.7h13.1a17.2,17.2,0,0,1,16.9,13.8c1.1,5.5-.5,10.3-4.3,14.4A18.2,18.2,0,0,1,225,93H214.2c-2.7,0-4.2-1.5-4.3-4.3Zm7.5,11.2a78.3,78.3,0,0,0,9.7-.1c5.4-.6,9.4-5.6,9.5-11s-3.3-9.8-8.9-10.6c-3.4-.5-6.8-.1-10.3-.1Z" transform="translate(-17.4 -14.6)"/><path class="cls-2" d="M171.7,75.4V62c0-2.4,1-3.4,3.3-3.4h13.6a17.1,17.1,0,0,1,17,17.6c-.1,7.3-6.6,14.7-14.2,16.3a19.9,19.9,0,0,1-4.2.4H176c-2.8,0-4.3-1.4-4.3-4.2Zm7.4,11.3a78.3,78.3,0,0,0,9.7-.1c5.4-.6,9.5-5.6,9.6-11.1A10.3,10.3,0,0,0,189.2,65c-3.2-.5-6.6-.2-9.9-.2-.1,0-.1.1-.2.2Z" transform="translate(-17.4 -14.6)"/><path class="cls-2" d="M125.6,74.5l.3.2c4.5,2.6,6.2,7.8,3.7,12.3s-5,5.7-9.1,5.9H107.4a4,4,0,0,1-3.7-4c-.1-1.4,0-2.8,0-4.2V62.9c0-3.3.9-4.3,4.2-4.3h12.2c6.1.2,10.2,5.8,8.3,11.4C127.8,71.6,126.6,72.9,125.6,74.5ZM110.8,87.6c2.9,0,5.6.1,8.3-.1a5.3,5.3,0,0,0,4.5-5.2,4.4,4.4,0,0,0-4.5-4.7c-2.5-.2-5-.1-7.5-.1-.2,0-.8.5-.8.8Zm.1-15.2h6.8a4.7,4.7,0,0,0,4.2-4.1c.2-2.1-.6-3.7-2.5-4a80.8,80.8,0,0,0-8.5-.5Z" transform="translate(-17.4 -14.6)"/><path class="cls-2" d="M134.3,70.5V61.4c.1-2.3,1.2-3.3,3.6-3.3s3.7,1,3.7,3.3V78.5a9.3,9.3,0,0,0,7,8.7c3.3.9,7.2-1.3,8.8-4.9a10.5,10.5,0,0,0,.8-3.9c.1-5.5.1-11,.1-16.5,0-3.2,3-5.1,5.7-3.4a3.7,3.7,0,0,1,1.6,2.6c.1,6.2.3,12.4-.1,18.5s-4.3,10.6-10,12.9-11.1,1.2-15.7-2.9a14.7,14.7,0,0,1-5.5-12.2C134.4,75.1,134.3,72.8,134.3,70.5Z" transform="translate(-17.4 -14.6)"/><path class="cls-2" d="M260.6,74.1l9.7-13.9a4.3,4.3,0,0,1,4.1-2.1,3.2,3.2,0,0,1,2.8,1.6,3.3,3.3,0,0,1-.4,3.3c-3.8,5.3-7.5,10.6-11.3,15.8a5.6,5.6,0,0,0-1.3,3.9c.1,2.1,0,4.3,0,6.4a3.8,3.8,0,0,1-2.4,3.8c-2.1,1.2-4.8-.7-4.9-3.4s-.1-4.6,0-6.9a5.2,5.2,0,0,0-1.1-3.6L244.9,63.4c-1.4-1.9-1.3-3.5.1-4.6a4.3,4.3,0,0,1,5.5.7l7,10.2Z" transform="translate(-17.4 -14.6)"/><path class="cls-1" d="M62.2,55.3a4.4,4.4,0,0,1-4.1,4.8,4.2,4.2,0,0,1-5-3.8Q51.9,47.6,51,38.9a4.5,4.5,0,0,1,4.1-5.2,4.8,4.8,0,0,1,5,4.4c.6,5.2,1.3,10.3,1.9,15.5C62.1,54.2,62.1,54.9,62.2,55.3Z" transform="translate(-17.4 -14.6)"/><path class="cls-1" d="M113.6,34.3a5.8,5.8,0,0,1,5.8-1.5,5.4,5.4,0,0,1,4.1,5.1V50.5c0,.9-.3,1.6-1.3,1.6s-1.3-.7-1.3-1.6V38.7a3.2,3.2,0,0,0-1.9-3.3,2.9,2.9,0,0,0-4.1,2.8V49.6c0,1,.3,2.5-1.4,2.5s-1.2-1.5-1.2-2.5c-.1-3.6,0-7.3-.1-10.9s-1.2-3.5-2.9-3.6-3,1.4-3,3.5V50.1c0,1.1-.2,2-1.4,2s-1.3-1-1.3-2V38.8c0-2.5.9-4.5,3.2-5.6s4.4-.7,6.4.9Z" transform="translate(-17.4 -14.6)"/><path class="cls-1" d="M65.3,40.9A4,4,0,0,1,67,36.7a4.1,4.1,0,0,1,4.3-.8,4.4,4.4,0,0,1,3,3.6l1.5,11.7a4.7,4.7,0,0,1-4.1,5.4c-2.2.4-4.7-1.6-5-4.2S65.8,45.2,65.3,40.9Z" transform="translate(-17.4 -14.6)"/><path class="cls-1" d="M42,39.3a4,4,0,0,1,4.3,3.5c.7,4.1,1.2,8.3,1.7,12.5A4.5,4.5,0,0,1,44.1,60a4.6,4.6,0,0,1-5.2-3.9q-.9-6-1.5-12A4.5,4.5,0,0,1,42,39.3Z" transform="translate(-17.4 -14.6)"/><path class="cls-1" d="M29.4,20.6a6,6,0,0,1-5.9,6,6,6,0,1,1-.1-12A6,6,0,0,1,29.4,20.6Z" transform="translate(-17.4 -14.6)"/><path class="cls-1" d="M163.9,44.9c0-1.8-.1-3.6,0-5.4a6.7,6.7,0,0,1,6.6-6.9c4.1-.1,7.2,2.5,7.4,6.6s.1,7.7.1,11.5c0,.9-.3,1.5-1.3,1.5s-1.3-.6-1.3-1.5c0-3.5,0-7-.1-10.4s-1.2-4.5-3.3-5a4.1,4.1,0,0,0-5.4,3.7c-.2,3.5-.1,7-.1,10.4V51c-.1.8-.6,1.4-1.4,1.2a2.4,2.4,0,0,1-1.2-1.4c-.1-1.9,0-3.9,0-5.9Z" transform="translate(-17.4 -14.6)"/><path class="cls-1" d="M139.7,36.9a6.6,6.6,0,0,1-1.4,5.5,8.2,8.2,0,0,1-2.7,2.2,1.6,1.6,0,0,0-1.1,1.7,28.1,28.1,0,0,1,0,4.1c0,.9-.2,1.8-1.3,1.7s-1.3-.8-1.3-1.7V46.2c.1-.7-.1-1.1-.9-1.4a6.7,6.7,0,0,1-4.8-6.5v-4c0-.9.2-1.7,1.3-1.7s1.3.9,1.3,1.8a25.4,25.4,0,0,0,0,3.9,4.3,4.3,0,0,0,4.2,4.4,4.2,4.2,0,0,0,4.2-4.2c.1-1.5,0-2.9,0-4.4s.4-1.5,1.3-1.5,1.3.6,1.2,1.5Z" transform="translate(-17.4 -14.6)"/><path class="cls-1" d="M145.4,44.6c0,2,.1,4,0,5.9a2.1,2.1,0,0,1-.8,1.6c-1,.5-1.7-.2-1.7-1.6-.1-4,0-8,0-12V34.1q-.2-1.5,1.5-1.5h9.1c.9,0,1.4.4,1.4,1.3s-.6,1.2-1.4,1.2h-6.9c-.8,0-1.2.2-1.2,1.2a35.3,35.3,0,0,1,0,4.6c0,.9.4,1.1,1.2,1.1h4.3c1,0,1.6.4,1.6,1.4s-.7,1.2-1.6,1.2Z" transform="translate(-17.4 -14.6)"/><path class="cls-1" d="M160,42.4v8c0,.9,0,1.8-1.2,1.8s-1.4-.9-1.4-1.8c0-5.3.1-10.7,0-16,0-.9.2-1.8,1.3-1.8s1.3.9,1.3,1.9Z" transform="translate(-17.4 -14.6)"/><path class="cls-3" d="M217.4,86.7V64.9c3.5,0,6.9-.4,10.3.1,5.6.8,9,5.1,8.9,10.6s-4.1,10.4-9.5,11A78.3,78.3,0,0,1,217.4,86.7Z" transform="translate(-17.4 -14.6)"/><path class="cls-3" d="M179.1,86.7V65c.1-.1.1-.2.2-.2,3.3,0,6.7-.3,9.9.2a10.3,10.3,0,0,1,9.2,10.5c-.1,5.5-4.2,10.5-9.6,11.1A78.3,78.3,0,0,1,179.1,86.7Z" transform="translate(-17.4 -14.6)"/><path class="cls-3" d="M110.8,87.6V78.3c0-.3.6-.8.8-.8,2.5,0,5-.1,7.5.1a4.4,4.4,0,0,1,4.5,4.7,5.3,5.3,0,0,1-4.5,5.2C116.4,87.7,113.7,87.6,110.8,87.6Z" transform="translate(-17.4 -14.6)"/><path class="cls-3" d="M110.9,72.4V63.8a80.8,80.8,0,0,1,8.5.5c1.9.3,2.7,1.9,2.5,4a4.7,4.7,0,0,1-4.2,4.1Z" transform="translate(-17.4 -14.6)"/></svg>