<?xml version="1.0" encoding="utf-8"?>
<!-- Generator: Adobe Illustrator 26.0.1, SVG Export Plug-In . SVG Version: 6.00 Build 0)  -->
<svg version="1.1" id="Layer_1" xmlns="http://www.w3.org/2000/svg" xmlns:xlink="http://www.w3.org/1999/xlink" x="0px" y="0px"
	 viewBox="0 0 100 40.3" style="enable-background:new 0 0 100 40.3;" xml:space="preserve">
<style type="text/css">
	.st0{display:none;fill:#2883FE;}
	.st1{fill:#FFFFFF;}
	.st2{opacity:0.7;fill:#FFFFFF;}
	.st3{fill:#0E5BCA;}
</style>
<rect x="-0.1" y="0.1" class="st0" width="100.1" height="40.1"/>
<g>
	<path class="st1" d="M51.9,28.8l-1.6-2.1c-0.5,0.1-0.9,0.1-1.4,0.1c-1.2,0-2.2-0.3-3.2-0.8c-1-0.5-1.7-1.3-2.3-2.3
		s-0.9-2.1-0.9-3.3s0.3-2.3,0.9-3.3c0.6-1,1.3-1.7,2.3-2.3c1-0.5,2-0.8,3.2-0.8c1.2,0,2.2,0.3,3.2,0.8c1,0.5,1.7,1.3,2.3,2.3
		c0.6,1,0.8,2.1,0.8,3.3c0,1.1-0.2,2-0.6,2.9c-0.4,0.9-1,1.6-1.8,2.2l2.7,3.3H51.9z M46.6,23.1c0.6,0.7,1.4,1,2.4,1
		c1,0,1.8-0.3,2.4-1c0.6-0.7,0.9-1.5,0.9-2.6c0-1.1-0.3-2-0.9-2.6c-0.6-0.7-1.4-1-2.4-1c-1,0-1.8,0.3-2.4,1
		c-0.6,0.6-0.9,1.5-0.9,2.6C45.7,21.5,46,22.4,46.6,23.1z"/>
	<path class="st1" d="M66.7,16.8v9.8h-3v-1.3c-0.3,0.4-0.7,0.8-1.2,1s-1.1,0.4-1.7,0.4c-0.8,0-1.4-0.2-2-0.5c-0.6-0.3-1-0.8-1.3-1.5
		s-0.5-1.4-0.5-2.2v-5.7h3v5.3c0,0.7,0.2,1.2,0.5,1.5c0.3,0.4,0.8,0.5,1.4,0.5c0.6,0,1.1-0.2,1.4-0.5c0.3-0.4,0.5-0.9,0.5-1.5v-5.3
		H66.7z"/>
	<path class="st1" d="M68.8,19.1c0.4-0.8,0.9-1.4,1.6-1.8c0.7-0.4,1.4-0.6,2.2-0.6c0.7,0,1.3,0.1,1.8,0.4c0.5,0.3,0.9,0.7,1.2,1.1
		v-1.4h3v9.8h-3v-1.4c-0.3,0.5-0.7,0.8-1.2,1.1c-0.5,0.3-1.1,0.4-1.8,0.4c-0.8,0-1.5-0.2-2.2-0.6c-0.7-0.4-1.2-1-1.6-1.8
		c-0.4-0.8-0.6-1.7-0.6-2.7C68.3,20.7,68.5,19.8,68.8,19.1z M75,20c-0.4-0.4-0.9-0.7-1.5-0.7c-0.6,0-1.1,0.2-1.5,0.6
		c-0.4,0.4-0.6,1-0.6,1.8s0.2,1.3,0.6,1.8c0.4,0.4,0.9,0.7,1.5,0.7c0.6,0,1.1-0.2,1.5-0.7c0.4-0.4,0.6-1,0.6-1.8
		C75.6,21,75.4,20.4,75,20z"/>
	<path class="st1" d="M83.9,13.6v13h-3v-13H83.9z"/>
	<path class="st1" d="M86.3,15.3c-0.3-0.3-0.5-0.7-0.5-1.2c0-0.5,0.2-0.9,0.5-1.2c0.3-0.3,0.8-0.5,1.3-0.5c0.5,0,0.9,0.2,1.3,0.5
		c0.3,0.3,0.5,0.7,0.5,1.2c0,0.5-0.2,0.8-0.5,1.2s-0.8,0.5-1.3,0.5C87,15.8,86.6,15.7,86.3,15.3z M89.1,16.8v9.8h-3v-9.8H89.1z"/>
	<path class="st1" d="M93,26.4c-0.7-0.3-1.2-0.7-1.6-1.2c-0.4-0.5-0.6-1.1-0.7-1.7h3c0,0.3,0.2,0.6,0.5,0.8c0.3,0.2,0.6,0.3,1,0.3
		c0.4,0,0.7-0.1,0.9-0.2s0.3-0.3,0.3-0.6c0-0.3-0.1-0.5-0.4-0.6c-0.3-0.1-0.8-0.3-1.4-0.4c-0.7-0.2-1.3-0.3-1.8-0.5
		c-0.5-0.2-0.9-0.5-1.2-0.9C91.2,21,91,20.4,91,19.7c0-0.6,0.2-1.1,0.5-1.5s0.8-0.8,1.4-1.1s1.3-0.4,2.2-0.4c1.2,0,2.2,0.3,2.9,0.9
		c0.7,0.6,1.1,1.4,1.2,2.4h-2.8c0-0.3-0.2-0.6-0.4-0.8s-0.6-0.3-1-0.3c-0.4,0-0.6,0.1-0.8,0.2c-0.2,0.1-0.3,0.3-0.3,0.6
		c0,0.3,0.1,0.5,0.4,0.6s0.8,0.3,1.4,0.4c0.7,0.2,1.3,0.4,1.8,0.6c0.5,0.2,0.9,0.5,1.2,0.9c0.3,0.4,0.5,0.9,0.5,1.6
		c0,0.6-0.2,1.1-0.5,1.5c-0.3,0.5-0.8,0.8-1.4,1.1c-0.6,0.3-1.3,0.4-2.1,0.4C94.4,26.8,93.6,26.7,93,26.4z"/>
</g>
<g>
	<path class="st1" d="M45.3,32.6c-0.1,0.2-0.2,0.3-0.5,0.4c-0.2,0.1-0.5,0.2-0.8,0.2h-0.6v1.5h-0.8v-3.8h1.4c0.3,0,0.5,0.1,0.8,0.2
		s0.4,0.2,0.5,0.4c0.1,0.2,0.2,0.4,0.2,0.6C45.5,32.2,45.4,32.4,45.3,32.6z M44.5,32.4c0.1-0.1,0.2-0.2,0.2-0.4
		c0-0.4-0.2-0.6-0.6-0.6h-0.6v1.1H44C44.3,32.6,44.4,32.5,44.5,32.4z"/>
	<path class="st1" d="M48.6,34.4c-0.3-0.2-0.5-0.4-0.7-0.7c-0.2-0.3-0.3-0.6-0.3-1c0-0.4,0.1-0.7,0.3-1s0.4-0.5,0.7-0.7
		c0.3-0.2,0.6-0.3,1-0.3c0.4,0,0.7,0.1,1,0.3c0.3,0.2,0.5,0.4,0.7,0.7c0.2,0.3,0.3,0.6,0.3,1c0,0.4-0.1,0.7-0.3,1
		c-0.2,0.3-0.4,0.5-0.7,0.7c-0.3,0.2-0.6,0.3-1,0.3C49.2,34.7,48.9,34.6,48.6,34.4z M50.1,33.9c0.2-0.1,0.3-0.3,0.4-0.4
		c0.1-0.2,0.1-0.4,0.1-0.7c0-0.3,0-0.5-0.1-0.7c-0.1-0.2-0.2-0.3-0.4-0.4c-0.2-0.1-0.4-0.2-0.6-0.2s-0.4,0.1-0.6,0.2
		c-0.2,0.1-0.3,0.2-0.4,0.4c-0.1,0.2-0.1,0.4-0.1,0.7c0,0.3,0,0.5,0.1,0.7c0.1,0.2,0.2,0.3,0.4,0.4c0.2,0.1,0.4,0.2,0.6,0.2
		S50,34,50.1,33.9z"/>
	<path class="st1" d="M55.8,34.7L55,33.2h-0.4v1.5h-0.8v-3.8h1.4c0.3,0,0.5,0.1,0.8,0.2s0.4,0.2,0.5,0.4c0.1,0.2,0.2,0.4,0.2,0.6
		c0,0.3-0.1,0.5-0.2,0.7s-0.4,0.3-0.7,0.4l0.9,1.6H55.8z M54.6,32.6h0.6c0.2,0,0.4,0,0.5-0.2s0.2-0.2,0.2-0.4c0-0.2-0.1-0.3-0.2-0.4
		s-0.3-0.1-0.5-0.1h-0.6V32.6z"/>
	<path class="st1" d="M61.7,30.8v0.6h-1v3.2h-0.8v-3.2h-1v-0.6H61.7z"/>
	<path class="st1" d="M66.4,33.9h-1.5l-0.3,0.7h-0.8l1.4-3.8h0.9l1.4,3.8h-0.8L66.4,33.9z M66.2,33.3l-0.6-1.6l-0.6,1.6H66.2z"/>
	<path class="st1" d="M70.5,34.1h1.3v0.6h-2v-3.8h0.8V34.1z"/>
</g>
<path class="st1" d="M13,30.4l12.2-8.1c-0.5,5,2.5,9.2,5.6,12.3c0.6-1.2,0.9-2.6,0.9-4V9.5c0-4.9-4-8.9-8.9-8.9H9.5
	c-4.9,0-8.9,4-8.9,8.9v21.1c0,4.9,4,8.9,8.9,8.9H22C20,32.9,13,30.4,13,30.4z"/>
<path class="st1" d="M19.4,9.6L7.2,17.7c0.5-5-2.5-9.2-5.6-12.3C0.9,6.7,0.6,8,0.6,9.5v21.1c0,4.9,4,8.9,8.9,8.9h13.4
	c4.9,0,8.9-4,8.9-8.9V9.5c0-4.9-4-8.9-8.9-8.9H10.4C12.3,7.1,19.4,9.6,19.4,9.6z"/>
<polygon class="st1" points="20.6,13.8 23.9,13.7 20.7,10.3 "/>
<path class="st1" d="M16.5,33.3c0,0,13.2,10.9,24.3,3.6c0,0-9.4-3.5-14.4-13.8L16.5,33.3z"/>
<path class="st2" d="M40.8,36.9c0,0-4.6-1.7-9-6.3c0,0,0-0.1,0-0.1V16.7l-5.5-5l-1.9-2.1L25,21.3l0.1,0.9l0.1-0.1c0,0.2,0,0.4,0,0.6
	l-0.2,1.8l-0.7,6l11.2,8.5C37.2,38.8,39,38.1,40.8,36.9z"/>
<path class="st3" d="M21.8,6.9H9.4c-1.7,0-3,1.3-3,3v20.4c0,1.7,1.3,3,3,3h13.9c1.7,0,3-1.3,3-3V11.7L21.8,6.9z"/>
<polygon class="st1" points="21.5,11.8 26.3,11.7 21.8,6.9 "/>
<path class="st1" d="M20.9,11.5c0,0.5-0.4,0.9-0.9,0.9h-9.8c-0.5,0-0.9-0.4-0.9-0.9l0,0c0-0.5,0.4-0.9,0.9-0.9h9.8
	C20.5,10.6,20.9,11,20.9,11.5L20.9,11.5z"/>
<path class="st1" d="M20.9,16c0,0.5-0.4,0.9-0.9,0.9h-9.8c-0.5,0-0.9-0.4-0.9-0.9l0,0c0-0.5,0.4-0.9,0.9-0.9h9.8
	C20.5,15.1,20.9,15.5,20.9,16L20.9,16z"/>
<path class="st1" d="M20.9,25c0,0.5-0.4,0.9-0.9,0.9h-9.8c-0.5,0-0.9-0.4-0.9-0.9l0,0c0-0.5,0.4-0.9,0.9-0.9h9.8
	C20.5,24.1,20.9,24.5,20.9,25L20.9,25z"/>
<path class="st1" d="M20.9,29.5c0,0.5-0.4,0.9-0.9,0.9h-9.8c-0.5,0-0.9-0.4-0.9-0.9l0,0c0-0.5,0.4-0.9,0.9-0.9h9.8
	C20.5,28.6,20.9,29,20.9,29.5L20.9,29.5z"/>
<path class="st1" d="M18,20.5c0,0.5-0.4,0.9-0.9,0.9h-6.9c-0.5,0-0.9-0.4-0.9-0.9l0,0c0-0.5,0.4-0.9,0.9-0.9h6.9
	C17.7,19.6,18,20,18,20.5L18,20.5z"/>
</svg>
