<?xml version="1.0" encoding="UTF-8"?>
<svg width="42px" height="42px" viewBox="0 0 42 42" version="1.1" xmlns="http://www.w3.org/2000/svg" xmlns:xlink="http://www.w3.org/1999/xlink">
    <!-- Generator: Sketch 62 (91390) - https://sketch.com -->
    <title>Spreadsheet templates</title>
    <desc>Created with Sketch.</desc>
    <defs>
        <polygon id="path-1" points="0 41.4517 41.454 41.4517 41.454 -0.0003 0 -0.0003"></polygon>
    </defs>
    <g id="Welcome" stroke="none" stroke-width="1" fill="none" fill-rule="evenodd">
        <g id="Login" transform="translate(-830.000000, -390.000000)">
            <g id="Spreadsheet-templates" transform="translate(830.000000, 390.000000)">
                <path d="M6.2204,2.3585 L6.2204,6.2175 L2.3614,6.2175 L6.2204,2.3585 Z M0.6934,38.6885 L2.7664,38.6885 L2.7664,40.7605 C2.7664,41.1425 3.0754,41.4515 3.4574,41.4515 L32.4724,41.4515 C32.8544,41.4515 33.1644,41.1425 33.1644,40.7605 L33.1644,37.9965 L31.7824,37.9965 L31.7824,40.0695 L4.1474,40.0695 L4.1474,38.6885 L20.0374,38.6885 L20.0374,37.3065 L1.3844,37.3065 L1.3844,7.5995 L6.9114,7.5995 C7.2924,7.5995 7.6024,7.2905 7.6024,6.9085 L7.6024,1.3815 L29.0184,1.3815 L29.0184,14.5075 L30.4004,14.5075 L30.4004,4.1455 L31.7824,4.1455 L31.7824,15.8895 L33.1644,15.8895 L33.1644,3.4545 C33.1644,3.0725 32.8544,2.7635 32.4724,2.7635 L30.4004,2.7635 L30.4004,0.6915 C30.4004,0.3095 30.0914,0.0005 29.7094,0.0005 L6.9114,0.0005 C6.8974,0.0005 6.8854,0.0065 6.8714,0.0085 C6.8084,0.0115 6.7464,0.0245 6.6864,0.0455 C6.6664,0.0505 6.6464,0.0585 6.6264,0.0665 C6.5514,0.0995 6.4814,0.1465 6.4234,0.2045 L0.2054,6.4215 C0.1474,6.4815 0.1004,6.5495 0.0674,6.6255 C0.0574,6.6465 0.0524,6.6675 0.0444,6.6895 C0.0244,6.7475 0.0124,6.8065 0.0094,6.8675 C0.0094,6.8825 0.0004,6.8955 0.0004,6.9105 L0.0004,37.9965 C0.0004,38.1815 0.0734,38.3575 0.2034,38.4865 C0.3334,38.6165 0.5104,38.6895 0.6934,38.6885 L0.6934,38.6885 Z" id="Fill-1" fill="#1268E3"></path>
                <path d="M8.9841,13.1261 L8.9841,10.3631 L20.0381,10.3591 L20.0381,13.1261 L8.9841,13.1261 Z M4.8381,16.5811 L7.6021,16.5811 L7.6021,14.5081 L4.8381,14.5081 L4.8381,16.5811 Z M4.8381,20.0351 L7.6021,20.0351 L7.6021,17.9631 L4.8381,17.9631 L4.8381,20.0351 Z M4.8381,23.4891 L7.6021,23.4891 L7.6021,21.4171 L4.8381,21.4171 L4.8381,23.4891 Z M4.8381,26.9431 L7.6021,26.9431 L7.6021,24.8711 L4.8381,24.8711 L4.8381,26.9431 Z M4.8381,30.3981 L7.6021,30.3981 L7.6021,28.3251 L4.8381,28.3251 L4.8381,30.3981 Z M7.6021,33.8521 L5.5291,33.8521 C5.1481,33.8521 4.8381,33.5431 4.8381,33.1611 L4.8381,31.7801 L7.6021,31.7801 L7.6021,33.8521 Z M5.5291,10.3631 L7.6021,10.3631 L7.6021,13.1261 L4.8381,13.1261 L4.8381,11.0541 C4.8381,10.6721 5.1481,10.3631 5.5291,10.3631 L5.5291,10.3631 Z M24.9301,10.3681 C25.2881,10.3951 25.5651,10.6941 25.5651,11.0541 L25.5651,13.1261 L21.4191,13.1261 L21.4191,10.3581 L24.8451,10.3581 C24.8731,10.3631 24.9011,10.3661 24.9301,10.3681 L24.9301,10.3681 Z M21.4191,15.1991 L21.4191,14.5081 L26.9461,14.5081 L26.9461,11.0541 C26.9441,9.9811 26.1251,9.0871 25.0571,8.9921 C24.9961,8.9841 24.9351,8.9801 24.8731,8.98094898 L5.5291,8.98094898 C4.3851,8.98094898 3.4571,9.9091 3.4571,11.0541 L3.4571,33.1611 C3.4571,34.3061 4.3851,35.2341 5.5291,35.2341 L15.8921,35.2341 L15.8921,33.8521 L8.9841,33.8521 L8.9841,31.7801 L14.5111,31.7801 L14.5111,30.3981 L8.9841,30.3981 L8.9841,28.3251 L13.8201,28.3251 L13.8201,26.9431 L8.9841,26.9431 L8.9841,24.8711 L13.9581,24.8711 L13.9581,23.4891 L8.9841,23.4891 L8.9841,21.4171 L15.2011,21.4171 L15.2011,20.0351 L8.9841,20.0351 L8.9841,17.9621 L17.9651,17.9621 L17.9651,16.5811 L8.9841,16.5811 L8.9841,14.5081 L20.0381,14.5081 L20.0381,15.1991 L21.4191,15.1991 Z" id="Fill-3" fill="#1268E3"></path>
                <mask id="mask-2" fill="white">
                    <use xlink:href="#path-1"></use>
                </mask>
                <g id="Clip-6"></g>
                <polygon id="Fill-5" fill="#1268E3" mask="url(#mask-2)" points="10.365 7.5987 15.892 7.5987 15.892 6.2177 10.365 6.2177"></polygon>
                <polygon id="Fill-7" fill="#1268E3" mask="url(#mask-2)" points="17.274 7.5987 20.038 7.5987 20.038 6.2177 17.274 6.2177"></polygon>
                <polygon id="Fill-8" fill="#1268E3" mask="url(#mask-2)" points="10.365 4.8367 20.037 4.8367 20.037 3.4547 10.365 3.4547"></polygon>
                <path d="M39.298,40.0699 C39.092,40.0699 38.896,39.9889 38.75,39.8429 L33.855,34.9479 C34.231,34.5919 34.581,34.2119 34.904,33.8059 L39.845,38.7479 C40.067,38.9689 40.133,39.3019 40.014,39.5909 C39.894,39.8809 39.611,40.0699 39.298,40.0699 L39.298,40.0699 Z M16.583,26.9429 C16.583,21.6019 20.913,17.2719 26.255,17.2719 C31.597,17.2719 35.927,21.6019 35.927,26.9429 C35.927,32.2849 31.597,36.6159 26.255,36.6159 C20.916,36.6099 16.589,32.2829 16.583,26.9429 L16.583,26.9429 Z M35.725,32.6729 L35.637,32.7609 C38.659,27.9029 37.492,21.5419 32.943,18.0719 C28.393,14.6019 21.95,15.1599 18.064,19.3619 C14.178,23.5619 14.123,30.0279 17.937,34.2949 C21.75,38.5609 28.182,39.2289 32.791,35.8379 L37.774,40.8199 C38.615,41.6629 39.981,41.6629 40.822,40.8199 C41.665,39.9779 41.665,38.6129 40.822,37.7709 L35.725,32.6729 Z" id="Fill-9" fill="#1268E3" mask="url(#mask-2)"></path>
                <path d="M26.2551,33.8522 C23.1831,33.8482 20.4821,31.8182 19.6231,28.8682 C21.4031,30.2442 23.5761,31.0142 25.8251,31.0672 C26.1091,31.0962 26.3971,31.0962 26.6811,31.0672 C28.9311,31.0152 31.1071,30.2452 32.8881,28.8682 C32.0291,31.8182 29.3271,33.8482 26.2551,33.8522 M26.2551,20.0352 C29.3271,20.0392 32.0291,22.0692 32.8881,25.0192 C31.1081,23.6432 28.9341,22.8732 26.6851,22.8212 C26.4011,22.7902 26.1141,22.7902 25.8301,22.8212 C23.5791,22.8722 21.4041,23.6422 19.6231,25.0192 C20.4821,22.0692 23.1831,20.0392 26.2551,20.0352 M29.8221,24.8422 C31.0091,25.2972 32.0761,26.0162 32.9441,26.9432 C32.0761,27.8722 31.0091,28.5892 29.8221,29.0442 C30.5931,27.7492 30.5931,26.1372 29.8221,24.8422 M22.6891,29.0442 C21.5021,28.5892 20.4341,27.8722 19.5661,26.9432 C20.4341,26.0162 21.5021,25.2972 22.6891,24.8422 C21.9171,26.1372 21.9171,27.7492 22.6891,29.0442 M23.4911,26.9432 C23.4911,25.4172 24.7291,24.1802 26.2551,24.1802 C27.7811,24.1802 29.0191,25.4172 29.0191,26.9432 C29.0191,28.4702 27.7811,29.7062 26.2551,29.7062 C24.7291,29.7062 23.4911,28.4702 23.4911,26.9432 M26.2551,18.6532 C21.6771,18.6532 17.9651,22.3652 17.9651,26.9432 C17.9651,31.5222 21.6771,35.2342 26.2551,35.2342 C30.8341,35.2342 34.5451,31.5222 34.5451,26.9432 C34.5411,22.3672 30.8321,18.6582 26.2551,18.6532" id="Fill-10" fill="#1268E3" mask="url(#mask-2)"></path>
                <path d="M27.6369,26.943 C27.6369,27.707 27.0189,28.325 26.2549,28.325 C25.4919,28.325 24.8729,27.707 24.8729,26.943 C24.8729,26.18 25.4919,25.562 26.2549,25.562 C27.0189,25.562 27.6369,26.18 27.6369,26.943" id="Fill-11" fill="#1268E3" mask="url(#mask-2)"></path>
            </g>
        </g>
    </g>
</svg>